<svg width="237" height="47" viewBox="0 0 237 47" fill="none" xmlns="http://www.w3.org/2000/svg">
<path d="M0.912 19V18.088C1.52 18.072 2.008 18.032 2.376 17.968C2.76 17.888 3.056 17.752 3.264 17.56C3.472 17.352 3.608 17.08 3.672 16.744C3.752 16.392 3.792 15.928 3.792 15.352V4.168C3.792 3.608 3.76 3.16 3.696 2.824C3.648 2.472 3.536 2.2 3.36 2.008C3.2 1.8 2.96 1.664 2.64 1.6C2.32 1.52 1.904 1.464 1.392 1.432V0.519999H9.816C11.256 0.519999 12.584 0.759999 13.8 1.24C15.032 1.72 16.088 2.384 16.968 3.232C17.864 4.08 18.56 5.088 19.056 6.256C19.552 7.424 19.8 8.696 19.8 10.072C19.8 11.384 19.568 12.592 19.104 13.696C18.64 14.784 17.984 15.72 17.136 16.504C16.304 17.288 15.304 17.904 14.136 18.352C12.968 18.784 11.688 19 10.296 19H0.912ZM6.72 1.696C6.448 1.696 6.312 1.832 6.312 2.104V15.088C6.312 16.912 7.504 17.824 9.888 17.824C12.08 17.824 13.76 17.176 14.928 15.88C16.096 14.568 16.68 12.648 16.68 10.12C16.68 8.792 16.52 7.608 16.2 6.568C15.88 5.528 15.416 4.648 14.808 3.928C14.216 3.208 13.496 2.656 12.648 2.272C11.8 1.888 10.84 1.696 9.768 1.696H6.72ZM36.6983 5.152C36.6983 6.432 36.3143 7.496 35.5463 8.344C34.7783 9.192 33.5543 9.76 31.8743 10.048L37.1783 16.432C37.6103 16.96 38.0823 17.344 38.5943 17.584C39.1223 17.808 39.7463 17.976 40.4663 18.088V19H35.8343L29.9543 11.464C29.7463 11.192 29.5463 10.976 29.3543 10.816C29.1783 10.656 28.9863 10.536 28.7783 10.456C28.5863 10.36 28.3543 10.304 28.0823 10.288C27.8263 10.256 27.5143 10.24 27.1463 10.24V15.232C27.1463 15.824 27.1783 16.312 27.2422 16.696C27.3223 17.064 27.4743 17.352 27.6983 17.56C27.9383 17.768 28.2743 17.912 28.7063 17.992C29.1543 18.056 29.7383 18.088 30.4583 18.088V19H21.9863V18.088C22.5463 18.072 22.9943 18.024 23.3303 17.944C23.6823 17.864 23.9543 17.728 24.1463 17.536C24.3383 17.344 24.4663 17.072 24.5303 16.72C24.5943 16.368 24.6263 15.912 24.6263 15.352V4.168C24.6263 3.608 24.5943 3.16 24.5303 2.824C24.4823 2.472 24.3703 2.2 24.1943 2.008C24.0343 1.8 23.7943 1.664 23.4743 1.6C23.1543 1.52 22.7383 1.464 22.2263 1.432V0.519999H29.7623C31.9703 0.519999 33.6743 0.927999 34.8743 1.744C36.0903 2.56 36.6983 3.696 36.6983 5.152ZM27.1463 9.04H28.8503C30.4503 9.04 31.6343 8.752 32.4023 8.176C33.1863 7.584 33.5782 6.616 33.5782 5.272C33.5782 3.976 33.2663 3.048 32.6423 2.488C32.0343 1.928 31.0743 1.648 29.7623 1.648H27.5543C27.2823 1.648 27.1463 1.784 27.1463 2.056V9.04ZM50.727 0.279999C52.135 0.279999 53.447 0.527999 54.663 1.024C55.879 1.52 56.935 2.2 57.831 3.064C58.727 3.928 59.431 4.944 59.943 6.112C60.455 7.28 60.711 8.544 60.711 9.904C60.711 11.2 60.447 12.416 59.919 13.552C59.407 14.688 58.703 15.68 57.807 16.528C56.911 17.36 55.855 18.024 54.639 18.52C53.423 19 52.119 19.24 50.727 19.24C49.335 19.24 48.031 19 46.815 18.52C45.599 18.024 44.543 17.36 43.647 16.528C42.751 15.68 42.039 14.688 41.511 13.552C40.999 12.416 40.743 11.2 40.743 9.904C40.743 8.544 40.999 7.28 41.511 6.112C42.023 4.944 42.727 3.928 43.623 3.064C44.519 2.2 45.575 1.52 46.791 1.024C48.007 0.527999 49.319 0.279999 50.727 0.279999ZM50.727 17.92C51.783 17.92 52.727 17.736 53.559 17.368C54.407 17 55.127 16.472 55.719 15.784C56.327 15.096 56.791 14.264 57.111 13.288C57.431 12.296 57.591 11.192 57.591 9.976C57.591 8.696 57.431 7.544 57.111 6.52C56.791 5.48 56.335 4.6 55.743 3.88C55.151 3.144 54.431 2.584 53.583 2.2C52.735 1.8 51.783 1.6 50.727 1.6C49.671 1.6 48.719 1.8 47.871 2.2C47.023 2.584 46.303 3.144 45.711 3.88C45.119 4.6 44.663 5.48 44.343 6.52C44.023 7.544 43.863 8.696 43.863 9.976C43.863 11.192 44.023 12.296 44.343 13.288C44.663 14.264 45.119 15.096 45.711 15.784C46.303 16.472 47.023 17 47.871 17.368C48.719 17.736 49.671 17.92 50.727 17.92ZM78.4373 19.24L67.0373 4.216H66.9413V14.464C66.9413 15.264 66.9653 15.896 67.0133 16.36C67.0773 16.824 67.1893 17.184 67.3493 17.44C67.5253 17.696 67.7653 17.864 68.0693 17.944C68.3893 18.024 68.8053 18.072 69.3173 18.088V19H62.8613V18.088C63.4213 18.072 63.8693 18.024 64.2053 17.944C64.5573 17.848 64.8293 17.68 65.0213 17.44C65.2133 17.2 65.3413 16.864 65.4053 16.432C65.4693 15.984 65.5013 15.384 65.5013 14.632V4.888C65.5013 4.216 65.4693 3.664 65.4053 3.232C65.3573 2.784 65.2453 2.432 65.0693 2.176C64.9093 1.92 64.6693 1.744 64.3493 1.648C64.0293 1.536 63.6133 1.464 63.1013 1.432V0.519999H67.8533L78.3413 14.512H78.4373V5.056C78.4373 4.272 78.4053 3.648 78.3413 3.184C78.2933 2.704 78.1813 2.336 78.0053 2.08C77.8453 1.824 77.6053 1.656 77.2853 1.576C76.9813 1.496 76.5733 1.448 76.0613 1.432V0.519999H82.5173V1.432C81.9573 1.448 81.5013 1.504 81.1493 1.6C80.8133 1.68 80.5493 1.84 80.3573 2.08C80.1653 2.32 80.0373 2.664 79.9733 3.112C79.9093 3.56 79.8773 4.152 79.8773 4.888V19.24H78.4373ZM100.094 19.24L88.6935 4.216H88.5975V14.464C88.5975 15.264 88.6215 15.896 88.6695 16.36C88.7335 16.824 88.8455 17.184 89.0055 17.44C89.1815 17.696 89.4215 17.864 89.7255 17.944C90.0455 18.024 90.4615 18.072 90.9735 18.088V19H84.5175V18.088C85.0775 18.072 85.5255 18.024 85.8615 17.944C86.2135 17.848 86.4855 17.68 86.6775 17.44C86.8695 17.2 86.9975 16.864 87.0615 16.432C87.1255 15.984 87.1575 15.384 87.1575 14.632V4.888C87.1575 4.216 87.1255 3.664 87.0615 3.232C87.0135 2.784 86.9015 2.432 86.7255 2.176C86.5655 1.92 86.3255 1.744 86.0055 1.648C85.6855 1.536 85.2695 1.464 84.7575 1.432V0.519999H89.5095L99.9975 14.512H100.094V5.056C100.094 4.272 100.062 3.648 99.9975 3.184C99.9495 2.704 99.8375 2.336 99.6615 2.08C99.5015 1.824 99.2615 1.656 98.9415 1.576C98.6375 1.496 98.2295 1.448 97.7175 1.432V0.519999H104.174V1.432C103.614 1.448 103.158 1.504 102.806 1.6C102.47 1.68 102.206 1.84 102.014 2.08C101.822 2.32 101.694 2.664 101.63 3.112C101.566 3.56 101.534 4.152 101.534 4.888V19.24H100.094ZM111.334 14.464C111.334 15.264 111.366 15.896 111.43 16.36C111.494 16.824 111.614 17.184 111.79 17.44C111.982 17.696 112.246 17.864 112.582 17.944C112.934 18.024 113.39 18.072 113.95 18.088V19H106.174V18.088C106.734 18.072 107.182 18.024 107.518 17.944C107.87 17.848 108.142 17.68 108.334 17.44C108.526 17.2 108.654 16.864 108.718 16.432C108.782 15.984 108.814 15.384 108.814 14.632V4.888C108.814 4.216 108.782 3.664 108.718 3.232C108.67 2.784 108.558 2.432 108.382 2.176C108.222 1.92 107.982 1.744 107.662 1.648C107.342 1.536 106.926 1.464 106.414 1.432V0.519999H113.71V1.432C113.198 1.448 112.782 1.512 112.462 1.624C112.158 1.736 111.918 1.928 111.742 2.2C111.582 2.456 111.47 2.816 111.406 3.28C111.358 3.744 111.334 4.336 111.334 5.056V14.464ZM131.711 19.24L120.311 4.216H120.215V14.464C120.215 15.264 120.239 15.896 120.287 16.36C120.351 16.824 120.463 17.184 120.623 17.44C120.799 17.696 121.039 17.864 121.343 17.944C121.663 18.024 122.079 18.072 122.591 18.088V19H116.135V18.088C116.695 18.072 117.143 18.024 117.479 17.944C117.831 17.848 118.103 17.68 118.295 17.44C118.487 17.2 118.615 16.864 118.679 16.432C118.743 15.984 118.775 15.384 118.775 14.632V4.888C118.775 4.216 118.743 3.664 118.679 3.232C118.631 2.784 118.519 2.432 118.343 2.176C118.183 1.92 117.943 1.744 117.623 1.648C117.303 1.536 116.887 1.464 116.375 1.432V0.519999H121.127L131.615 14.512H131.711V5.056C131.711 4.272 131.679 3.648 131.615 3.184C131.567 2.704 131.455 2.336 131.279 2.08C131.119 1.824 130.879 1.656 130.559 1.576C130.255 1.496 129.847 1.448 129.335 1.432V0.519999H135.791V1.432C135.231 1.448 134.775 1.504 134.423 1.6C134.087 1.68 133.823 1.84 133.631 2.08C133.439 2.32 133.311 2.664 133.247 3.112C133.183 3.56 133.151 4.152 133.151 4.888V19.24H131.711ZM146.725 19.24C145.365 19.24 144.141 19.024 143.053 18.592C141.965 18.16 141.037 17.552 140.269 16.768C139.501 15.968 138.909 15 138.493 13.864C138.093 12.728 137.893 11.464 137.893 10.072C137.893 8.616 138.117 7.288 138.565 6.088C139.013 4.888 139.637 3.856 140.437 2.992C141.253 2.128 142.221 1.464 143.341 0.999999C144.477 0.519999 145.725 0.279999 147.085 0.279999C148.045 0.279999 148.949 0.415999 149.797 0.688C150.645 0.959999 151.565 1.4 152.557 2.008L153.061 0.519999H153.901L153.589 6.04H152.437C152.437 5.256 152.285 4.584 151.981 4.024C151.693 3.448 151.309 2.976 150.829 2.608C150.349 2.24 149.797 1.968 149.173 1.792C148.565 1.616 147.941 1.528 147.301 1.528C146.325 1.528 145.453 1.72 144.685 2.104C143.917 2.488 143.269 3.04 142.741 3.76C142.213 4.48 141.805 5.36 141.517 6.4C141.245 7.44 141.109 8.616 141.109 9.928C141.109 12.504 141.645 14.488 142.717 15.88C143.789 17.256 145.341 17.944 147.373 17.944C148.141 17.944 148.829 17.856 149.437 17.68C150.045 17.488 150.557 17.24 150.973 16.936C151.405 16.616 151.725 16.256 151.933 15.856C152.157 15.44 152.269 15.008 152.269 14.56C152.269 13.632 152.077 13.008 151.693 12.688C151.325 12.352 150.717 12.184 149.869 12.184V11.272H156.685V12.184C156.301 12.184 155.981 12.216 155.725 12.28C155.469 12.344 155.261 12.464 155.101 12.64C154.957 12.8 154.853 13.016 154.789 13.288C154.741 13.56 154.717 13.904 154.717 14.32V17.008C154.413 17.008 154.133 17.024 153.877 17.056C153.637 17.072 153.381 17.128 153.109 17.224C152.837 17.304 152.533 17.424 152.197 17.584C151.877 17.728 151.493 17.928 151.045 18.184C150.485 18.504 149.837 18.76 149.101 18.952C148.381 19.144 147.589 19.24 146.725 19.24ZM173.92 19H158.416V18.088C158.976 18.072 159.424 18.024 159.76 17.944C160.112 17.864 160.384 17.728 160.576 17.536C160.768 17.344 160.896 17.072 160.96 16.72C161.024 16.368 161.056 15.912 161.056 15.352V4.168C161.056 3.608 161.024 3.16 160.96 2.824C160.912 2.472 160.8 2.2 160.624 2.008C160.464 1.8 160.224 1.664 159.904 1.6C159.584 1.52 159.168 1.464 158.656 1.432V0.519999H165.952V1.432C165.44 1.448 165.024 1.496 164.704 1.576C164.4 1.656 164.16 1.8 163.984 2.008C163.824 2.216 163.712 2.504 163.648 2.872C163.6 3.24 163.576 3.728 163.576 4.336V14.68C163.576 15.352 163.64 15.904 163.768 16.336C163.912 16.752 164.144 17.08 164.464 17.32C164.8 17.544 165.24 17.704 165.784 17.8C166.328 17.88 167.016 17.92 167.848 17.92C168.76 17.92 169.528 17.872 170.152 17.776C170.776 17.664 171.296 17.48 171.712 17.224C172.144 16.952 172.48 16.584 172.72 16.12C172.976 15.64 173.192 15.024 173.368 14.272H174.28L173.92 19ZM191.656 11.56C191.656 12.824 191.528 13.936 191.272 14.896C191.032 15.856 190.632 16.656 190.072 17.296C189.528 17.936 188.816 18.424 187.936 18.76C187.056 19.08 185.992 19.24 184.744 19.24C183.56 19.24 182.528 19.128 181.648 18.904C180.768 18.664 180.032 18.28 179.44 17.752C178.848 17.208 178.408 16.504 178.12 15.64C177.832 14.776 177.688 13.712 177.688 12.448V6.112C177.688 4.928 177.656 4.016 177.592 3.376C177.544 2.736 177.384 2.264 177.112 1.96C176.92 1.752 176.656 1.616 176.32 1.552C176 1.472 175.568 1.432 175.024 1.432V0.519999H183.208V1.432C182.664 1.432 182.224 1.464 181.888 1.528C181.552 1.592 181.288 1.752 181.096 2.008C180.872 2.296 180.728 2.76 180.664 3.4C180.6 4.024 180.568 4.928 180.568 6.112V12.64C180.568 13.456 180.648 14.184 180.808 14.824C180.984 15.448 181.264 15.984 181.648 16.432C182.032 16.864 182.528 17.192 183.136 17.416C183.76 17.64 184.52 17.752 185.416 17.752C187.016 17.752 188.216 17.312 189.016 16.432C189.816 15.536 190.216 14.224 190.216 12.496V6.712C190.216 5.288 190.16 4.208 190.048 3.472C189.936 2.736 189.728 2.216 189.424 1.912C189.2 1.704 188.92 1.576 188.584 1.528C188.248 1.464 187.832 1.432 187.336 1.432V0.519999H194.296V1.432C193.784 1.432 193.36 1.472 193.024 1.552C192.704 1.632 192.448 1.808 192.256 2.08C192.016 2.416 191.856 2.944 191.776 3.664C191.696 4.368 191.656 5.384 191.656 6.712V11.56ZM211.656 19.24L200.256 4.216H200.16V14.464C200.16 15.264 200.184 15.896 200.232 16.36C200.296 16.824 200.408 17.184 200.568 17.44C200.744 17.696 200.984 17.864 201.288 17.944C201.608 18.024 202.024 18.072 202.536 18.088V19H196.08V18.088C196.64 18.072 197.088 18.024 197.424 17.944C197.776 17.848 198.048 17.68 198.24 17.44C198.432 17.2 198.56 16.864 198.624 16.432C198.688 15.984 198.72 15.384 198.72 14.632V4.888C198.72 4.216 198.688 3.664 198.624 3.232C198.576 2.784 198.464 2.432 198.288 2.176C198.128 1.92 197.888 1.744 197.568 1.648C197.248 1.536 196.832 1.464 196.32 1.432V0.519999H201.072L211.56 14.512H211.656V5.056C211.656 4.272 211.624 3.648 211.56 3.184C211.512 2.704 211.4 2.336 211.224 2.08C211.064 1.824 210.824 1.656 210.504 1.576C210.2 1.496 209.792 1.448 209.28 1.432V0.519999H215.736V1.432C215.176 1.448 214.72 1.504 214.368 1.6C214.032 1.68 213.768 1.84 213.576 2.08C213.384 2.32 213.256 2.664 213.192 3.112C213.128 3.56 213.096 4.152 213.096 4.888V19.24H211.656ZM217.568 19V18.088C218.176 18.072 218.664 18.032 219.032 17.968C219.416 17.888 219.712 17.752 219.92 17.56C220.128 17.352 220.264 17.08 220.328 16.744C220.408 16.392 220.448 15.928 220.448 15.352V4.168C220.448 3.608 220.416 3.16 220.352 2.824C220.304 2.472 220.192 2.2 220.016 2.008C219.856 1.8 219.616 1.664 219.296 1.6C218.976 1.52 218.56 1.464 218.048 1.432V0.519999H226.472C227.912 0.519999 229.24 0.759999 230.456 1.24C231.688 1.72 232.744 2.384 233.624 3.232C234.52 4.08 235.216 5.088 235.712 6.256C236.208 7.424 236.456 8.696 236.456 10.072C236.456 11.384 236.224 12.592 235.76 13.696C235.296 14.784 234.64 15.72 233.792 16.504C232.96 17.288 231.96 17.904 230.792 18.352C229.624 18.784 228.344 19 226.952 19H217.568ZM223.376 1.696C223.104 1.696 222.968 1.832 222.968 2.104V15.088C222.968 16.912 224.16 17.824 226.544 17.824C228.736 17.824 230.416 17.176 231.584 15.88C232.752 14.568 233.336 12.648 233.336 10.12C233.336 8.792 233.176 7.608 232.856 6.568C232.536 5.528 232.072 4.648 231.464 3.928C230.872 3.208 230.152 2.656 229.304 2.272C228.456 1.888 227.496 1.696 226.424 1.696H223.376ZM6.24 42.184C6.24 42.792 6.272 43.288 6.336 43.672C6.4 44.056 6.528 44.352 6.72 44.56C6.912 44.768 7.176 44.912 7.512 44.992C7.848 45.056 8.296 45.088 8.856 45.088V46H1.08V45.088C1.64 45.088 2.088 45.056 2.424 44.992C2.776 44.912 3.048 44.776 3.24 44.584C3.432 44.376 3.56 44.096 3.624 43.744C3.688 43.376 3.72 42.912 3.72 42.352V31.168C3.72 30.56 3.68 30.08 3.6 29.728C3.536 29.36 3.408 29.08 3.216 28.888C3.04 28.696 2.8 28.576 2.496 28.528C2.192 28.464 1.8 28.432 1.32 28.432V27.52H8.616V28.432C8.136 28.432 7.744 28.464 7.44 28.528C7.136 28.592 6.888 28.728 6.696 28.936C6.52 29.144 6.4 29.44 6.336 29.824C6.272 30.192 6.24 30.696 6.24 31.336V37.264L12.24 30.04C12.56 29.64 12.72 29.328 12.72 29.104C12.72 28.656 12.264 28.432 11.352 28.432V27.52H17.136V28.408C16.816 28.408 16.536 28.432 16.296 28.48C16.056 28.512 15.816 28.592 15.576 28.72C15.352 28.848 15.112 29.032 14.856 29.272C14.6 29.512 14.304 29.824 13.968 30.208L9.456 35.416L16.464 43.84C16.864 44.304 17.24 44.632 17.592 44.824C17.944 45 18.416 45.088 19.008 45.088V46H11.64V45.088C12.264 45.088 12.712 45.04 12.984 44.944C13.256 44.832 13.392 44.664 13.392 44.44C13.392 44.312 13.328 44.128 13.2 43.888C13.072 43.648 12.864 43.352 12.576 43L7.896 37.24L6.24 39.16V42.184ZM38.6711 38.56C38.6711 39.824 38.5431 40.936 38.2871 41.896C38.0471 42.856 37.6471 43.656 37.0871 44.296C36.5431 44.936 35.8311 45.424 34.9511 45.76C34.0711 46.08 33.0071 46.24 31.7591 46.24C30.5751 46.24 29.5431 46.128 28.6631 45.904C27.7831 45.664 27.0471 45.28 26.4551 44.752C25.8631 44.208 25.4231 43.504 25.1351 42.64C24.8471 41.776 24.7031 40.712 24.7031 39.448V33.112C24.7031 31.928 24.6711 31.016 24.6071 30.376C24.5591 29.736 24.3991 29.264 24.1271 28.96C23.9351 28.752 23.6711 28.616 23.3351 28.552C23.0151 28.472 22.5831 28.432 22.0391 28.432V27.52H30.2231V28.432C29.6791 28.432 29.2391 28.464 28.9031 28.528C28.5671 28.592 28.3031 28.752 28.1111 29.008C27.8871 29.296 27.7431 29.76 27.6791 30.4C27.6151 31.024 27.5831 31.928 27.5831 33.112V39.64C27.5831 40.456 27.6631 41.184 27.8231 41.824C27.9991 42.448 28.2791 42.984 28.6631 43.432C29.0471 43.864 29.5431 44.192 30.1511 44.416C30.7751 44.64 31.5351 44.752 32.4311 44.752C34.0311 44.752 35.2311 44.312 36.0311 43.432C36.8311 42.536 37.2311 41.224 37.2311 39.496V33.712C37.2311 32.288 37.1751 31.208 37.0631 30.472C36.9511 29.736 36.7431 29.216 36.4391 28.912C36.2151 28.704 35.9351 28.576 35.5991 28.528C35.2631 28.464 34.8471 28.432 34.3511 28.432V27.52H41.3111V28.432C40.7991 28.432 40.3751 28.472 40.0391 28.552C39.7191 28.632 39.4631 28.808 39.2711 29.08C39.0311 29.416 38.8711 29.944 38.7911 30.664C38.7111 31.368 38.6711 32.384 38.6711 33.712V38.56ZM61.311 46.24L49.911 31.216H49.815V41.464C49.815 42.264 49.839 42.896 49.887 43.36C49.951 43.824 50.063 44.184 50.223 44.44C50.399 44.696 50.639 44.864 50.943 44.944C51.263 45.024 51.679 45.072 52.191 45.088V46H45.735V45.088C46.295 45.072 46.743 45.024 47.079 44.944C47.431 44.848 47.703 44.68 47.895 44.44C48.087 44.2 48.215 43.864 48.279 43.432C48.343 42.984 48.375 42.384 48.375 41.632V31.888C48.375 31.216 48.343 30.664 48.279 30.232C48.231 29.784 48.119 29.432 47.943 29.176C47.783 28.92 47.543 28.744 47.223 28.648C46.903 28.536 46.487 28.464 45.975 28.432V27.52H50.727L61.215 41.512H61.311V32.056C61.311 31.272 61.279 30.648 61.215 30.184C61.167 29.704 61.055 29.336 60.879 29.08C60.719 28.824 60.479 28.656 60.159 28.576C59.855 28.496 59.447 28.448 58.935 28.432V27.52H65.391V28.432C64.831 28.448 64.375 28.504 64.023 28.6C63.687 28.68 63.423 28.84 63.231 29.08C63.039 29.32 62.911 29.664 62.847 30.112C62.783 30.56 62.751 31.152 62.751 31.888V46.24H61.311ZM70.2026 40.36H71.0906C71.2026 41.08 71.4106 41.728 71.7146 42.304C72.0346 42.88 72.4266 43.368 72.8906 43.768C73.3706 44.168 73.9146 44.48 74.5226 44.704C75.1466 44.912 75.8186 45.016 76.5386 45.016C77.7226 45.016 78.6586 44.736 79.3466 44.176C80.0346 43.616 80.3786 42.856 80.3786 41.896C80.3786 41.496 80.3066 41.128 80.1626 40.792C80.0346 40.456 79.8106 40.136 79.4906 39.832C79.1706 39.512 78.7386 39.2 78.1946 38.896C77.6666 38.592 76.9946 38.264 76.1786 37.912C75.1866 37.48 74.3546 37.064 73.6826 36.664C73.0106 36.264 72.4746 35.848 72.0746 35.416C71.6746 34.984 71.3866 34.528 71.2106 34.048C71.0506 33.552 70.9706 32.992 70.9706 32.368C70.9706 31.632 71.0986 30.952 71.3546 30.328C71.6266 29.704 72.0026 29.168 72.4826 28.72C72.9626 28.256 73.5306 27.904 74.1866 27.664C74.8426 27.408 75.5626 27.28 76.3466 27.28C77.0506 27.28 77.7066 27.392 78.3146 27.616C78.9226 27.84 79.5386 28.2 80.1626 28.696L80.7866 27.616H81.3386L81.6026 32.392H80.7146C80.3306 31.08 79.7706 30.104 79.0346 29.464C78.3146 28.824 77.4426 28.504 76.4186 28.504C75.4426 28.504 74.6666 28.744 74.0906 29.224C73.5146 29.704 73.2266 30.352 73.2266 31.168C73.2266 31.552 73.2906 31.904 73.4186 32.224C73.5466 32.528 73.7546 32.824 74.0426 33.112C74.3306 33.384 74.7066 33.664 75.1706 33.952C75.6346 34.224 76.2106 34.512 76.8986 34.816C78.0826 35.344 79.0666 35.84 79.8506 36.304C80.6346 36.752 81.2586 37.208 81.7226 37.672C82.1866 38.12 82.5146 38.6 82.7066 39.112C82.8986 39.608 82.9946 40.168 82.9946 40.792C82.9946 41.592 82.8346 42.328 82.5146 43C82.1946 43.672 81.7466 44.248 81.1706 44.728C80.5946 45.208 79.9066 45.584 79.1066 45.856C78.3066 46.112 77.4266 46.24 76.4666 46.24C75.5546 46.24 74.7306 46.112 73.9946 45.856C73.2746 45.6 72.5386 45.168 71.7866 44.56L71.1146 45.736H70.5626L70.2026 40.36ZM105.619 32.104H104.635C104.587 31.416 104.475 30.84 104.299 30.376C104.123 29.912 103.867 29.552 103.531 29.296C103.211 29.024 102.803 28.832 102.307 28.72C101.811 28.608 101.219 28.552 100.531 28.552C99.9393 28.552 99.4593 28.568 99.0913 28.6C98.7393 28.616 98.4673 28.656 98.2753 28.72C98.0833 28.784 97.9553 28.864 97.8913 28.96C97.8433 29.04 97.8193 29.152 97.8193 29.296V42.136C97.8193 42.648 97.8513 43.088 97.9153 43.456C97.9953 43.824 98.1393 44.128 98.3473 44.368C98.5713 44.592 98.8833 44.768 99.2833 44.896C99.6993 45.008 100.243 45.072 100.915 45.088V46H91.8433V45.088C92.5153 45.072 93.0593 45.008 93.4753 44.896C93.8913 44.768 94.2033 44.592 94.4113 44.368C94.6353 44.128 94.7793 43.824 94.8433 43.456C94.9233 43.088 94.9633 42.648 94.9633 42.136V29.296C94.9633 29.152 94.9313 29.04 94.8673 28.96C94.8193 28.864 94.7073 28.784 94.5313 28.72C94.3713 28.656 94.1393 28.616 93.8353 28.6C93.5313 28.568 93.1233 28.552 92.6113 28.552C91.9873 28.552 91.4033 28.576 90.8593 28.624C90.3313 28.672 89.8673 28.816 89.4673 29.056C89.0833 29.28 88.7713 29.632 88.5313 30.112C88.2913 30.592 88.1633 31.256 88.1473 32.104H87.2593V27.52H105.379L105.619 32.104ZM125.033 27.52H125.705L125.921 33.04H125.033C124.681 31.632 124.001 30.528 122.993 29.728C121.985 28.928 120.769 28.528 119.345 28.528C118.369 28.528 117.497 28.72 116.729 29.104C115.961 29.488 115.313 30.04 114.785 30.76C114.257 31.48 113.849 32.36 113.561 33.4C113.289 34.44 113.153 35.616 113.153 36.928C113.153 39.504 113.689 41.488 114.761 42.88C115.833 44.256 117.385 44.944 119.417 44.944C122.505 44.944 124.489 43.304 125.369 40.024H126.353V46H125.513L124.961 44.104C123.281 45.528 121.249 46.24 118.865 46.24C117.505 46.24 116.273 46.024 115.169 45.592C114.081 45.16 113.145 44.552 112.361 43.768C111.593 42.968 110.993 42 110.561 40.864C110.145 39.728 109.937 38.464 109.937 37.072C109.937 35.616 110.161 34.288 110.609 33.088C111.057 31.888 111.681 30.856 112.481 29.992C113.297 29.128 114.265 28.464 115.385 28C116.521 27.52 117.769 27.28 119.129 27.28C120.089 27.28 120.993 27.416 121.841 27.688C122.689 27.96 123.609 28.4 124.601 29.008L125.033 27.52ZM136.619 35.848C137.483 35.848 138.203 35.8 138.779 35.704C139.371 35.592 139.835 35.424 140.171 35.2C140.523 34.976 140.771 34.688 140.915 34.336C141.075 33.984 141.155 33.568 141.155 33.088H141.995V39.64H141.155C141.155 39.16 141.083 38.744 140.939 38.392C140.811 38.04 140.571 37.752 140.219 37.528C139.883 37.288 139.419 37.112 138.827 37C138.251 36.872 137.515 36.808 136.619 36.808V42.232C136.619 42.76 136.683 43.2 136.811 43.552C136.939 43.888 137.155 44.168 137.459 44.392C137.779 44.6 138.195 44.752 138.707 44.848C139.219 44.928 139.851 44.968 140.603 44.968C141.451 44.968 142.171 44.912 142.763 44.8C143.355 44.672 143.851 44.464 144.251 44.176C144.651 43.888 144.971 43.512 145.211 43.048C145.451 42.568 145.651 41.976 145.811 41.272H146.723L146.363 46H131.459V45.088C132.019 45.072 132.467 45.024 132.803 44.944C133.155 44.864 133.427 44.728 133.619 44.536C133.811 44.344 133.939 44.072 134.003 43.72C134.067 43.368 134.099 42.912 134.099 42.352V31.168C134.099 30.608 134.067 30.16 134.003 29.824C133.955 29.472 133.843 29.2 133.667 29.008C133.507 28.8 133.267 28.664 132.947 28.6C132.627 28.52 132.211 28.464 131.699 28.432V27.52H145.571L145.787 31.744H144.947C144.851 31.104 144.691 30.584 144.467 30.184C144.259 29.768 143.963 29.44 143.579 29.2C143.211 28.96 142.739 28.792 142.163 28.696C141.587 28.6 140.891 28.552 140.075 28.552H137.027C136.755 28.552 136.619 28.688 136.619 28.96V35.848ZM167.089 46.24L155.689 31.216H155.593V41.464C155.593 42.264 155.617 42.896 155.665 43.36C155.729 43.824 155.841 44.184 156.001 44.44C156.177 44.696 156.417 44.864 156.721 44.944C157.041 45.024 157.457 45.072 157.969 45.088V46H151.513V45.088C152.073 45.072 152.521 45.024 152.857 44.944C153.209 44.848 153.481 44.68 153.673 44.44C153.865 44.2 153.993 43.864 154.057 43.432C154.121 42.984 154.153 42.384 154.153 41.632V31.888C154.153 31.216 154.121 30.664 154.057 30.232C154.009 29.784 153.897 29.432 153.721 29.176C153.561 28.92 153.321 28.744 153.001 28.648C152.681 28.536 152.265 28.464 151.753 28.432V27.52H156.505L166.993 41.512H167.089V32.056C167.089 31.272 167.057 30.648 166.993 30.184C166.945 29.704 166.833 29.336 166.657 29.08C166.497 28.824 166.257 28.656 165.937 28.576C165.633 28.496 165.225 28.448 164.713 28.432V27.52H171.169V28.432C170.609 28.448 170.153 28.504 169.801 28.6C169.465 28.68 169.201 28.84 169.009 29.08C168.817 29.32 168.689 29.664 168.625 30.112C168.561 30.56 168.529 31.152 168.529 31.888V46.24H167.089ZM193.593 32.104H192.609C192.561 31.416 192.449 30.84 192.273 30.376C192.097 29.912 191.841 29.552 191.505 29.296C191.185 29.024 190.777 28.832 190.281 28.72C189.785 28.608 189.193 28.552 188.505 28.552C187.913 28.552 187.433 28.568 187.065 28.6C186.713 28.616 186.441 28.656 186.249 28.72C186.057 28.784 185.929 28.864 185.865 28.96C185.817 29.04 185.793 29.152 185.793 29.296V42.136C185.793 42.648 185.825 43.088 185.889 43.456C185.969 43.824 186.113 44.128 186.321 44.368C186.545 44.592 186.857 44.768 187.257 44.896C187.673 45.008 188.217 45.072 188.889 45.088V46H179.817V45.088C180.489 45.072 181.033 45.008 181.449 44.896C181.865 44.768 182.177 44.592 182.385 44.368C182.609 44.128 182.753 43.824 182.817 43.456C182.897 43.088 182.937 42.648 182.937 42.136V29.296C182.937 29.152 182.905 29.04 182.841 28.96C182.793 28.864 182.681 28.784 182.505 28.72C182.345 28.656 182.113 28.616 181.809 28.6C181.505 28.568 181.097 28.552 180.585 28.552C179.961 28.552 179.377 28.576 178.833 28.624C178.305 28.672 177.841 28.816 177.441 29.056C177.057 29.28 176.745 29.632 176.505 30.112C176.265 30.592 176.137 31.256 176.121 32.104H175.233V27.52H193.353L193.593 32.104ZM202.875 35.848C203.739 35.848 204.459 35.8 205.035 35.704C205.627 35.592 206.091 35.424 206.427 35.2C206.779 34.976 207.027 34.688 207.171 34.336C207.331 33.984 207.411 33.568 207.411 33.088H208.251V39.64H207.411C207.411 39.16 207.339 38.744 207.195 38.392C207.067 38.04 206.827 37.752 206.475 37.528C206.139 37.288 205.675 37.112 205.083 37C204.507 36.872 203.771 36.808 202.875 36.808V42.232C202.875 42.76 202.939 43.2 203.067 43.552C203.195 43.888 203.411 44.168 203.715 44.392C204.035 44.6 204.451 44.752 204.963 44.848C205.475 44.928 206.107 44.968 206.859 44.968C207.707 44.968 208.427 44.912 209.019 44.8C209.611 44.672 210.107 44.464 210.507 44.176C210.907 43.888 211.227 43.512 211.467 43.048C211.707 42.568 211.907 41.976 212.067 41.272H212.979L212.619 46H197.715V45.088C198.275 45.072 198.723 45.024 199.059 44.944C199.411 44.864 199.683 44.728 199.875 44.536C200.067 44.344 200.195 44.072 200.259 43.72C200.323 43.368 200.355 42.912 200.355 42.352V31.168C200.355 30.608 200.323 30.16 200.259 29.824C200.211 29.472 200.099 29.2 199.923 29.008C199.763 28.8 199.523 28.664 199.203 28.6C198.883 28.52 198.467 28.464 197.955 28.432V27.52H211.827L212.043 31.744H211.203C211.107 31.104 210.947 30.584 210.723 30.184C210.515 29.768 210.219 29.44 209.835 29.2C209.467 28.96 208.995 28.792 208.419 28.696C207.843 28.6 207.147 28.552 206.331 28.552H203.283C203.011 28.552 202.875 28.688 202.875 28.96V35.848ZM232.481 32.152C232.481 33.432 232.097 34.496 231.329 35.344C230.561 36.192 229.337 36.76 227.657 37.048L232.961 43.432C233.393 43.96 233.865 44.344 234.377 44.584C234.905 44.808 235.529 44.976 236.249 45.088V46H231.617L225.737 38.464C225.529 38.192 225.329 37.976 225.137 37.816C224.961 37.656 224.769 37.536 224.561 37.456C224.369 37.36 224.137 37.304 223.865 37.288C223.609 37.256 223.297 37.24 222.929 37.24V42.232C222.929 42.824 222.961 43.312 223.025 43.696C223.105 44.064 223.257 44.352 223.481 44.56C223.721 44.768 224.057 44.912 224.489 44.992C224.937 45.056 225.521 45.088 226.241 45.088V46H217.769V45.088C218.329 45.072 218.777 45.024 219.113 44.944C219.465 44.864 219.737 44.728 219.929 44.536C220.121 44.344 220.249 44.072 220.313 43.72C220.377 43.368 220.409 42.912 220.409 42.352V31.168C220.409 30.608 220.377 30.16 220.313 29.824C220.265 29.472 220.153 29.2 219.977 29.008C219.817 28.8 219.577 28.664 219.257 28.6C218.937 28.52 218.521 28.464 218.009 28.432V27.52H225.545C227.753 27.52 229.457 27.928 230.657 28.744C231.873 29.56 232.481 30.696 232.481 32.152ZM222.929 36.04H224.633C226.233 36.04 227.417 35.752 228.185 35.176C228.969 34.584 229.361 33.616 229.361 32.272C229.361 30.976 229.049 30.048 228.425 29.488C227.817 28.928 226.857 28.648 225.545 28.648H223.337C223.065 28.648 222.929 28.784 222.929 29.056V36.04Z" fill="white"/>
</svg>
