<svg xmlns="http://www.w3.org/2000/svg" width="233.543" height="132.604" viewBox="0 0 233.543 132.604">
  <g id="Guldborgsund_ZOO_logoCMYKnegativ_hvidTekst_Payoff" transform="translate(0.01 -18.146)">
    <g id="guides" transform="translate(101.873 55.398)">
      <path id="Path_136" data-name="Path 136"
        d="M100.271,36.83l-.248,14.486L86.373,94.341h13.65V108.7l-34.2-.031V98.21L80.306,51.177l-12.722-.093-.046-14.1,32.718-.124Z"
        transform="translate(-65.82 -35.36)" fill="#fff" />
      <path id="Path_137" data-name="Path 137"
        d="M134.014,79.395c0,7.212-.17,12.3-.511,15.306a17.191,17.191,0,0,1-3.188,8.218,16.9,16.9,0,0,1-7.228,5.572,26.377,26.377,0,0,1-10.648,2.136,25.693,25.693,0,0,1-10.23-2.012,20.474,20.474,0,0,1-7.6-5.85,16.227,16.227,0,0,1-3.327-9.271c-.155-3.173-.31-6.67-.31-14.053L90.85,67.122c0-7.212.17-12.3.511-15.306a17.122,17.122,0,0,1,10.431-13.929,29.279,29.279,0,0,1,20.971-.108,17.158,17.158,0,0,1,7.382,5.649,16.891,16.891,0,0,1,3.327,8.187A151.534,151.534,0,0,1,134,67.122V79.395ZM115.365,55.824c0-3.343-.186-5.463-.557-6.407-.511-1.285-1.13-1.393-2.275-1.393a2.558,2.558,0,0,0-2.244,1.13c-.511.758-.774,2.972-.774,6.67V89.315q0,6.245.511,7.707a2.216,2.216,0,0,0,2.368,1.455,2.445,2.445,0,0,0,2.461-1.316c.542-.867.418-4.1.418-8.311l.093-33.012Z"
        transform="translate(-52.112 -35.875)" fill="#fff" />
      <path id="Path_138" data-name="Path 138"
        d="M165.923,79.4c0,7.212-.17,12.3-.511,15.306a17.108,17.108,0,0,1-10.385,13.929,23.284,23.284,0,0,1-10,1.981A30.37,30.37,0,0,1,133.9,108.45a15.851,15.851,0,0,1-7.057-5.556,16.349,16.349,0,0,1-3.358-7.986A151.541,151.541,0,0,1,122.96,79.4V67.127c0-7.212.186-12.3.511-15.306a16.9,16.9,0,0,1,3.281-8.59,16.2,16.2,0,0,1,7.1-5.355,29.029,29.029,0,0,1,20.878-.108A17.255,17.255,0,0,1,165.382,51.62a151.535,151.535,0,0,1,.526,15.508V79.4Zm-18.572-23.37c0-3.343.108-5.339-.635-6.748a2.15,2.15,0,0,0-2.12-1.408,2.754,2.754,0,0,0-2.291,1.285c-.511.758-.774,2.972-.774,6.67V89.321q0,6.245.511,7.707a2.483,2.483,0,0,0,2.507,1.579,2.708,2.708,0,0,0,2.538-2.012c.356-1.13.263-3.591.263-7.816V56.015Z"
        transform="translate(-34.526 -35.88)" fill="#fff" />
    </g>
    <g id="Lag_1" data-name="Lag 1" transform="translate(-0.01 0.241)">
      <g id="Group_120" data-name="Group 120" transform="translate(101.914 55.053)">
        <g id="Group_116" data-name="Group 116" transform="translate(0 1.559)">
          <path id="Path_139" data-name="Path 139"
            d="M66.92,36.835H98.8S86.421,61.8,84.3,70.76l-.789-.867a2.942,2.942,0,0,0-.7.186,36.688,36.688,0,0,1-.046,4.039c-.015.139-.015,0-.093-.031a21.586,21.586,0,0,1-5.928-4.008s-1.548-2.987-1.966-2.987L79.642,51.2H66.951V36.82Z"
            transform="translate(-65.249 -36.82)" fill="#cd9f28" />
          <path id="Path_140" data-name="Path 140"
            d="M88.266,88.011s-.046-5.216-.31-5.324c0,0-.882-.743-1.052.279,0,0,1.842,5.664-1.641,12.753,0,0-1.486,4.519-1.687,4.906-.186.387.387,1.9,1.176.356.774-1.548.17-1.857,2.322-6.686h13.2v14.378H65.84V98.195l8.636-28.214s1.7,4.922,1.935,5.061a2,2,0,0,1,.542.542,19.288,19.288,0,0,1,1.61,2.585.528.528,0,0,0,.8.155s.356-.046.155-.743a20.386,20.386,0,0,0-2.2-3.312A22.163,22.163,0,0,1,75.08,68.34a12.963,12.963,0,0,1,1.037,1.935,2.548,2.548,0,0,0,.619.96,5.106,5.106,0,0,0,1.5.913c.65.186,1.625,1.439,3.08,2.012a.449.449,0,0,0,.356-.82l1.7.789s-.139,1.517-.062.573a28.584,28.584,0,0,1-1.346,5.959s.031.743.913.635a23.221,23.221,0,0,0,1.579-9.332s1.377,2.167,1.316,3.1c0,0-1.455,5.835-.387,6.361a1.371,1.371,0,0,0,1.594.031,9.438,9.438,0,0,0,.8-1.285c.031-.217-.96.65-1.285.511-.34-.139-.588-2.027.279-5.448,0,0,.7-.5-1.888-4.473l.464-1.579s.418.882,1.037.046c0,0-.464-3.9,13.914-32.393V51.208L88.343,88.259M77.912,87.005c.248,1.47,1.176.6,1.176.6,0-1.5,1.718-7.088,1.718-7.088-.046-1.47-1.13-.5-1.13-.5Zm2.43,12.644c.418,1.052,1.006.294,1.006.294-.124-2.043-.077-4.179-.124-5.7-.046-1.5-1.671-5.432-1.671-5.432-1.083-1.207-1.052.31-1.052.31C80.125,92.515,80.342,99.65,80.342,99.65Zm1.95-13.821.6-.65a1.838,1.838,0,0,1-.155,1.8l-.449-1.13ZM82.106,87.9s.836,1.563,1.9-1.192c0,0,.418-2.337-1.207-2.786,0,0-.929-.155-1.377,1.764"
            transform="translate(-65.84 -36.815)" fill="#d7172f" />
        </g>
        <g id="Group_118" data-name="Group 118" transform="translate(88.403 0.008)">
          <path id="Path_141" data-name="Path 141"
            d="M126.82,40.975a5.034,5.034,0,0,1,4.767-.17,7.078,7.078,0,0,1,2.77,3.854,11.485,11.485,0,0,1,.279,4.287l-.727,4.829s-.371,4.132-.263,5c0,0-.124,4.241,1.9,5.541l3.931-3.7.217-8.744s-.062-3.993,2.863-3.807c0,0,2.6-.371,2.662,3.931.077,4.953.062,5.061.062,5.061s2.786-1.439,7.553.4a16.785,16.785,0,0,1,4.612,3.42,9.84,9.84,0,0,1,2.027,5.773.966.966,0,0,1,1.625-.217c1.068,1.021,2.507,2.569,2.972,3.049l-.108-10.694s.139-9.487-2.26-13.171c-.96-1.47-3.188-6.314-11.159-8.7a30.565,30.565,0,0,0-12.041-.9s-7.831.851-11.654,4.953Z"
            transform="translate(-120.846 -35.818)" fill="#e38d1a" />
          <path id="Path_142" data-name="Path 142"
            d="M126.82,40.975a5.034,5.034,0,0,1,4.767-.17,7.078,7.078,0,0,1,2.77,3.854,11.485,11.485,0,0,1,.279,4.287l-.727,4.829s-.371,4.132-.263,5c0,0-.124,4.241,1.9,5.541l3.931-3.7.217-8.744s-.062-3.993,2.863-3.807c0,0,2.6-.371,2.662,3.931.077,4.953.062,5.061.062,5.061s2.786-1.439,7.553.4a17.986,17.986,0,0,1,4.442,3.467,9.026,9.026,0,0,1,2.182,5.726.966.966,0,0,1,1.625-.217c1.068,1.021,2.507,2.569,2.972,3.049l-.108-10.694s.139-9.487-2.26-13.171c-.96-1.47-3.188-6.314-11.159-8.7a30.565,30.565,0,0,0-12.041-.9s-7.831.851-11.654,4.953Z"
            transform="translate(-120.846 -35.818)" fill="#cd9f28" />
          <path id="Path_143" data-name="Path 143"
            d="M142.82,68.325a1.184,1.184,0,0,1,1.7.774,1.043,1.043,0,0,1-.573,1.269s-1.083-.325-1.13-2.043Z"
            transform="translate(-112.083 -18.084)" fill="#d7172f" />
          <path id="Path_144" data-name="Path 144"
            d="M141.988,69.341s0,.5-.96,1.021c0,0-.944-.31-.727-1.083a3.621,3.621,0,0,1,.65-1.1s1.052.48,1.037,1.161Z"
            transform="translate(-113.48 -18.094)" fill="#d7172f" />
          <g id="Group_117" data-name="Group 117" transform="translate(0 5.267)">
            <path id="Path_145" data-name="Path 145"
              d="M127.03,41.185s.464.433,1.1-.31a14.6,14.6,0,0,1,1.671-1.254,3.253,3.253,0,0,1,3.622.34A6.149,6.149,0,0,1,135.7,44.25a27.452,27.452,0,0,1,0,3.033s-.464,3.993-.5,4.132c0,0-.387,5.216-.31,5.355a9.945,9.945,0,0,0,.48,3.838,6.75,6.75,0,0,0,2.414,3.2,4,4,0,0,0,.96.449c.186,0,1.13-.139.464-.836l-1.563-.975,1.826-1.764s-.789.727-.34,1.114c.573.5.836.155,2.507-1.424V71.132s-.774-1.517-1.346-1.114-.062.975.108,1.285l1.238,1.935V86.269s0,6.438.17,7.011c.186.573,0,3.358,2.647,3.374,0,0,2.755.433,2.817-4.457l.093-11.468,2.26,3.219s-.758,1.006-.573,1.594a1.435,1.435,0,0,0,.851,1.021c.433.17-2.182,8.357-2.461,9.8,0,0-2.662,11.282-2.708,11.453a2.088,2.088,0,0,0,.062.929c.093.2-10.4.2-15.864-5.154A18.212,18.212,0,0,1,123.3,91.531l-.34-5.881V62.914s.17-14.687.851-15a26.351,26.351,0,0,0,2.306,4.287s.913,1.037.975-.975l.4-3.3a14.716,14.716,0,0,1,1.95-2.43s.588-1.176-.7-.619c0,0-1.857,2.275-1.888,2.43a8.616,8.616,0,0,0-.4,2.322c-.016,1.083-.681-3.327-.34-3.916a3.6,3.6,0,0,1,1.037-1.5s.433-.975-.573-.511a4.066,4.066,0,0,0-1.207,2.167c-.17,1.238.464,3.761.232,3.807a10.2,10.2,0,0,1-1.377-3.25A8.809,8.809,0,0,1,126.6,42.16s.077-.975.464-.96Zm3.064.093a.53.53,0,0,0,.836-.124c.139-.743-.619-.7-.619-.7-.108-.046-.743.433-.217.82Zm-2.91.573s-.294.371.046.6c.511.34,1.733-.2,1.733-.2l.031.031a3.514,3.514,0,0,0,.155,1.517c.34.511.789.062.851-.077.046-.108-.077-2.058-.077-2.058l-.418-.371a4.685,4.685,0,0,0-2.337.557Zm3.668,1.176A11.146,11.146,0,0,1,133.3,46.8c.371,1.068.217,5.293.217,5.293-.093,1.161-.913,8.574-.913,8.574-.046,3.993,1.316,5.726,1.316,5.726,2.337,2.306,4.364,2.2,4.4,2.2,1.377-.387.325-.867.325-.867-3.683-.294-4.3-2.368-4.3-2.368a10.279,10.279,0,0,1-.975-4.039s.046-1.285.325-3.219c.016-.108.681-4.38.681-4.38a36.692,36.692,0,0,0,.248-4.086,10.893,10.893,0,0,0-.573-3.25,18.448,18.448,0,0,0-.944-1.671s.062,0-.836-1.161-1.161-.944-1.161-.944c-.387.108-.248.418-.248.418Z"
              transform="translate(-122.96 -39.221)" fill="#d7172f" />
            <path id="Path_146" data-name="Path 146"
              d="M148.274,51.7s4.333,3.126,4.333,7.259c0,0,.433.9.9,0,0,0,.186-.387.449-.34s-.557.449.186,1.052a10.869,10.869,0,0,1,3.869,4.117v.9s-1.021-.758-1.238-.573a3.637,3.637,0,0,1-2.91-1.145c-.635-.944-1.254-.093-1.269.093,0,.155-.2.573,1.532,1.424a4.448,4.448,0,0,0,2.693.666c.31,0,.99.093,1.176.48.186.371,0,15.4,0,15.4s-.279,8.76-1.718,10.71c0,0-2.167,5.076-5.958,7.537a24.308,24.308,0,0,1-12.737,3.7l5.386-22.039a1.551,1.551,0,0,0,1.114-1.8s.077-.727-1.594-1.377l-3.173-4.179v-4.6s5.339,8.435,5.448,9.054.418,2.894,2.167,3.126a1.791,1.791,0,0,0,.851-2.662s-.371-.851-2.012-.712L139.375,67.5l-.046-3.761s2.136.4,2.12-.31c-.031-.681-2.058-.6-2.058-.511v-6.98s.743-.387,1.9.851c0,0,5.68,6.051,6.082,6.3.573.371,4.6,3.358,6.082,3.4,0,0,.526.124.046-1.006,0,0-1.656-2.337-1.671-2.352a8.92,8.92,0,0,1-2.616-5.494s-1.114,1.176-.836,1.563c0,0,.758,2.012.9,2.229.371.557,2.229,3.188,2.322,3.266a48.57,48.57,0,0,1-4.736-3.327l-4.086-4.55s-1.9-2.322-3.327-2.043V50.093a9.544,9.544,0,0,1,8.822,1.563ZM145.1,81.913c-.139.48-5.51,19.315-5.51,19.315.155,1.439,1.068.2,1.068.2s5.045-17.241,5.169-19.052c.077-1.176-.727-.449-.727-.449Z"
              transform="translate(-114.953 -33.519)" fill="#d7172f" />
          </g>
        </g>
        <g id="Group_119" data-name="Group 119" transform="translate(38.737)">
          <path id="Path_147" data-name="Path 147"
            d="M90.994,86.324l-.077-14.5c-.217-14.656.371-19.268.371-19.268.836-7.088,4.225-10.122,4.225-10.122,6.469-7.413,17.241-6.593,17.241-6.593,10.6.155,15.322,5.216,15.322,5.216,6.222,4.983,5.8,16.158,5.8,16.158.248.449.124,17.4.124,17.4-2.291-.418-8.559-.526-8.729-.557s-1.424-.155-1.254.5c.17.635,1.331.418,1.331.418a8.023,8.023,0,0,0-1.888.217c-.511-.727-.991-.4-.991-.4-.356.139-.248.6-.248.6.666.789.418,1.006.418,1.006-.882.371-.511.975-.511.975s-.542-.263-.5-.418a6.559,6.559,0,0,0,.046-1.316,2.925,2.925,0,0,0-1.006-1.61c-.248-.232-.665.186-.665.186s-.418-.155-.077-.263a.822.822,0,0,0,.542-.449c.139-.279,1.254-6.825,1.254-6.825.758-7.831-1.873-10.787-1.873-10.787-1.269-.573-.727.7-.727.7a5.829,5.829,0,0,1,1.145,2.2c-1.3-.48-4.968.712-4.968.712l-.046-6.067c-.046-4.272-1.083-4.906-1.083-4.906,1.625-1.192,8.094-1.052,8.094-1.052,1.207-.5.077-.975.077-.975-8.388.48-8.28.991-10.88,2.058-2.848,1.161-5.649,6.113-5.649,6.113-.464.526-2.043,5.339-2.383,8.853a31.433,31.433,0,0,0-.34,3.4c0,.975.7.727.882.449a28.893,28.893,0,0,0,.4-4.519,18.35,18.35,0,0,1,5.432-11.933c-.124.031-.248,5.432-.248,5.432V74.454h-3.993c-.588-.015-3.761.232-3.761.232,1.671-2.4,5.293-3.374,5.293-3.374,1.006-1.207-.418-.929-.418-.929a16.775,16.775,0,0,0-3.792,1.9,30.37,30.37,0,0,0-5.339,6.779c-3.173,5.293-4.225,12.815-4.225,12.815a23.612,23.612,0,0,1-1.083,6.593l-.294-1.006c.665-.929,1.161-6.113,1.161-6.113C93.068,86.665,95.7,80.6,95.7,80.6a25.254,25.254,0,0,1,10.013-12.18c.464-.681-.433-.867-.433-.867-1.455.449-5.835,5-5.835,5-6.175,6.9-7.259,17.024-7.259,17.024a43.153,43.153,0,0,1-.712,5.773c-.248-.155-.5-8.961-.5-8.961ZM115.324,72.6l2.26-3.9a37.167,37.167,0,0,0,2.8-7.166c.4-1.532-.077-1.935-.712-2.027a28.681,28.681,0,0,0-4.38.975l.031,12.118ZM117.552,74c.217-.186,1.517.093,1.517-.046s.34-.232.34-.232a1.934,1.934,0,0,1-.062-.557c.031-.124.511-1.671.511-1.671l.511-2.894c0,.34-3.033,5.587-2.832,5.4Zm-2.229.371.217.31.774-.5L116.206,74c2.708-3.018,4.7-9.472,4.7-9.472v-1.1C119.471,67.644,115.324,74.376,115.324,74.376ZM102.54,77.534c-.139-.789,1.749-.82,1.749-.82.635-.108,5.278-.248,5.278-.248V75.181c-5.03-.325-6.578.217-6.578.217-.96,1.439-.449,2.12-.449,2.12Zm22.426-29.081s-2.074-5.463,2.6-5.247c0,0,1.7-.108,2.461,2.538a2.985,2.985,0,0,0-.789,3.3s.526,1.424,1.393,1.641c0,0,.836.31.882-.387l-.433-.712a2.294,2.294,0,0,1-.557-2.043c.232-1.285.511-.82.48-1.424,0,0-.17-.356-.248-.356,0,0,.449-.217-.789-2.136a3.867,3.867,0,0,0-3.622-1.223,3.756,3.756,0,0,0-2.383,1.966c-.727,1.579-.758,2.894,1.037,4.117Zm-4.953,28.338c1.5-.325.34-1.764.34-1.764C120.555,76.45,120.013,76.791,120.013,76.791Zm7.29-24a1.76,1.76,0,0,0,1.579.65,1.208,1.208,0,0,0,.6-.588,4.484,4.484,0,0,0,1.316-.573c.124-.17.077-.743-.542-.6a6.146,6.146,0,0,0-1.61.867s-.65-.263-.929-.418a1.368,1.368,0,0,0-.774-.046l-.96.867L127.3,52.8ZM123.7,58.234a42.481,42.481,0,0,0,.046,6.717,21.578,21.578,0,0,1-1.068,8.156c-.108.31-.526,1.238-.526,1.238.882.836,1.331-.681,1.331-.681a38.933,38.933,0,0,0,1.021-5.2,55.5,55.5,0,0,0,.17-7.088c-.217-1.161.139-3.4.186-5.432a7.642,7.642,0,0,1,1.377-3.838c.139-.96-.8-.449-.8-.449-1.331,1.966-1.579,3.281-1.733,6.562Z"
            transform="translate(-90.869 -35.813)" fill="#d7172f" />
          <path id="Path_148" data-name="Path 148"
            d="M92.175,86.312s.758-2.77.975-4.241l.665-5.247a44.5,44.5,0,0,1,1.873-6.547,29.266,29.266,0,0,1,5.324-9.24l1.254.666s-1.192,1.641-.077,2.492c0,0,1.223-.557,6.655-.6l.2,16.576s-.356,4.5,2.554,4.38c0,0,2.832.449,2.848-3.235V64.536a1.8,1.8,0,0,0,1.269-1.625,2.684,2.684,0,0,0-.48-1.47c.48-.155.4-.155.4-.155s.217,1.037.913.681a.583.583,0,0,0,.294-.882,14.231,14.231,0,0,0,1.517-.2c.666-.139.371,1.145.371,1.145s-1.114,1.238-.464,1.517c.4.17.418-.17.789-.17s.433.6,1.037.4a1.393,1.393,0,0,0,.8-.6s.82.944,1.346.4.929-.743.48-2.167c0,0,2.616-.789,10.632.356l-.155,15.57s-.294,9.038-3.977,12.474c0,0-4.953,7.15-17.628,7.15-4.349,0-14.331-.681-19.439-10.648Z"
            transform="translate(-90.162 -22.088)" fill="#cd9f28" />
        </g>
      </g>
      <g id="Group_125" data-name="Group 125" transform="translate(0 17.905)">
        <g id="Group_123" data-name="Group 123" transform="translate(63.578)">
          <g id="Group_121" data-name="Group 121">
            <path id="Path_149" data-name="Path 149" d="M53.529,11.81H41.07V23.975c0,12.536,8.713,16.235,12.459,17.411Z"
              transform="translate(-41.07 -11.81)" fill="#cd1543" />
            <path id="Path_150" data-name="Path 150"
              d="M44.713,29.181a1.936,1.936,0,0,1,.9-.294c1.052,0,2.229,1.207,3.482,1.207,2.058,0,2.12-1.207,3.916-1.207V24.461c-2.12,0-2.476,1.316-4.287,1.316-1.7,0-2.817-1.316-4.689-1.316a3.177,3.177,0,0,0-2.012.6,15.233,15.233,0,0,0,2.6,4.179c.031,0,.046-.031.077-.046h0Z"
              transform="translate(-40.55 -4.883)" fill="#d1b356" />
            <path id="Path_151" data-name="Path 151" d="M49.12,11.81H61.579V23.975c0,12.536-8.713,16.235-12.459,17.411Z"
              transform="translate(-36.661 -11.81)" fill="#d1b356" />
            <path id="Path_152" data-name="Path 152"
              d="M57.415,29.181a1.936,1.936,0,0,0-.9-.294c-1.052,0-2.229,1.207-3.482,1.207-2.058,0-2.12-1.207-3.916-1.207V24.461c2.12,0,2.476,1.316,4.287,1.316,1.7,0,2.817-1.316,4.689-1.316a3.177,3.177,0,0,1,2.012.6,15.233,15.233,0,0,1-2.6,4.179c-.031,0-.046-.031-.077-.046h0Z"
              transform="translate(-36.661 -4.883)" fill="#cd1543" />
          </g>
          <g id="Group_122" data-name="Group 122" transform="translate(0.762 0.573)">
            <path id="Path_153" data-name="Path 153"
              d="M52.95,12.83a2.315,2.315,0,0,0-1.408-.449c-.48,0-.882.139-1.377.867-.2.294-.557.387-1.161.062a2.043,2.043,0,0,0-2.1.263,1.011,1.011,0,0,0-.155,1.486s-.371-1.1.944-1.1a2.021,2.021,0,0,1,1.238.387c.882.588,1.377.464,1.888-.155a1.137,1.137,0,0,1,1.7-.31l.433.387v.8l-6.02,1.362s-.325.031-.263.279c0,0,.031.2.356.124.449-.093.573-.108.573-.108a6.737,6.737,0,0,0-.217,2.151,12.432,12.432,0,0,0,3.3,7.522,2.59,2.59,0,0,1-2.507-1.625s-.48-.96-.665-1.5a.848.848,0,0,0-.139-.248,1.063,1.063,0,0,0-.279-.155l-5.2-1.857s-.232-.093-.294.046c-.108.217.139.325.139.325l3.188,1.656s.588,7.506,3.544,7.506H53.29V12.18s-.279,0-.31.619Zm-.155,13.589H50.814a2.543,2.543,0,0,1,1.981-2.554Z"
              transform="translate(-41.562 -12.18)" fill="#d1b356" />
            <path id="Path_154" data-name="Path 154"
              d="M59.675,21.455a.4.4,0,0,0-.279-.387l.2-1.563h-.48c-.557,0-.65,0-.758.248-.464,1.083-.7,1.269-1.95,1.47-1.1.17-2.77.232-2.77.232-.4,0-.325.418-.325.418H57.4l-.248,1.161h-.758l.124-.557h-1.78c-.248,0-.387.325-.387.325l-1.966,3.591h-.17A19.929,19.929,0,0,1,54.537,14.46c1.238-.17.975-.851.975-.851L49.43,14.939V12.912c0-.727-.31-.712-.31-.712V30.571h5.448c.248,0,.31-.31.31-.31l.542-2.6h.774l-.6,2.91,2.987-1.037c.062-2.445.712-7.676.712-7.676a.394.394,0,0,0,.371-.4ZM49.584,26.408V23.854s1.8.077,2.368,2.554Zm6.825.186h-.758l.542-2.492h.743l-.526,2.492Z"
              transform="translate(-37.423 -12.169)" fill="#cd1543" />
          </g>
        </g>
        <g id="Group_124" data-name="Group 124" transform="translate(0 38.63)">
          <path id="Path_155" data-name="Path 155"
            d="M8.343,44.331c-1.517,0-2.585-.387-3-1.285a2.8,2.8,0,0,1-.17-.9V36.84H6.222v3.683a5.1,5.1,0,0,0,.217,2.244c.248.433.836.665,1.9.665s1.656-.232,1.9-.665a5.348,5.348,0,0,0,.217-2.244V36.84h1.052v5.309a2.438,2.438,0,0,1-.17.9C10.927,43.944,9.859,44.331,8.343,44.331Z"
            transform="translate(2.847 -36.732)" fill="#fff" />
          <path id="Path_156" data-name="Path 156"
            d="M47.463,44.331c-1.517,0-2.585-.387-3-1.285a2.438,2.438,0,0,1-.17-.9V36.84h1.052v3.683a5.1,5.1,0,0,0,.217,2.244c.248.433.836.665,1.9.665s1.656-.232,1.9-.665a5.348,5.348,0,0,0,.217-2.244V36.84h1.052v5.309a2.438,2.438,0,0,1-.17.9C50.047,43.944,48.979,44.331,47.463,44.331Z"
            transform="translate(24.272 -36.732)" fill="#fff" />
          <path id="Path_157" data-name="Path 157"
            d="M6.49,44.06a15.035,15.035,0,0,1-3.4.294c-3.064,0-3.1-1.641-3.1-3.792,0-2.26,0-3.792,3.389-3.792a23,23,0,0,1,2.879.155l-.124.882a24.577,24.577,0,0,0-2.863-.139c-2.2,0-2.167.882-2.167,2.879s.031,2.879,2.12,2.879a17.379,17.379,0,0,0,2.213-.093v-2.77H6.49v3.467Z"
            transform="translate(0.01 -36.77)" fill="#fff" />
          <path id="Path_158" data-name="Path 158"
            d="M40.93,44.06a15.035,15.035,0,0,1-3.4.294c-3.064,0-3.1-1.641-3.1-3.792,0-2.26,0-3.792,3.389-3.792a23,23,0,0,1,2.879.155l-.124.882a24.577,24.577,0,0,0-2.863-.139c-2.2,0-2.167.882-2.167,2.879s.031,2.879,2.12,2.879a17.379,17.379,0,0,0,2.213-.093v-2.77H40.93v3.467Z"
            transform="translate(18.872 -36.77)" fill="#fff" />
          <path id="Path_159" data-name="Path 159" d="M10.29,44.243V36.83h1.052v6.516H15.6v.9Z"
            transform="translate(5.651 -36.737)" fill="#fff" />
          <path id="Path_160" data-name="Path 160"
            d="M27.753,44.358c-3.668,0-3.683-1.579-3.683-3.792s0-3.776,3.683-3.776,3.668,1.548,3.668,3.776S31.344,44.358,27.753,44.358Zm2.151-6.1c-.34-.418-.944-.573-2.151-.573s-1.811.17-2.151.588c-.325.371-.4.867-.4,2.291s.108,1.935.418,2.306c.325.418.929.573,2.136.573s1.811-.17,2.151-.573c.325-.371.418-.882.418-2.306S30.214,38.647,29.9,38.26Z"
            transform="translate(13.198 -36.759)" fill="#fff" />
          <path id="Path_161" data-name="Path 161"
            d="M60.316,43.284c-.542.743-1.362.96-2.894.96H54.45V36.83h2.972c1.532,0,2.352.217,2.894.96.4.557.526,1.207.526,2.739s-.093,2.182-.511,2.739Zm-1.006-5.03c-.325-.4-.836-.526-1.966-.526H55.5v5.6h1.842c1.145,0,1.656-.093,1.966-.511a3.84,3.84,0,0,0,.418-2.306c0-1.346-.124-1.9-.418-2.275Z"
            transform="translate(29.836 -36.737)" fill="#fff" />
          <path id="Path_162" data-name="Path 162"
            d="M19.976,43.284c-.542.743-1.362.96-2.894.96H14.11V36.83h2.972c1.532,0,2.352.217,2.894.96.418.557.526,1.207.526,2.739s-.093,2.182-.511,2.739Zm-1.006-5.03c-.325-.4-.836-.526-1.966-.526H15.162v5.6H17c1.145,0,1.656-.093,1.966-.511a3.84,3.84,0,0,0,.418-2.306c0-1.346-.124-1.9-.418-2.275Z"
            transform="translate(7.743 -36.737)" fill="#fff" />
          <path id="Path_163" data-name="Path 163"
            d="M42.12,40c-.96-.046-1.656,0-1.656-1.052,0-.96.31-1.269,2.058-1.269a20.171,20.171,0,0,1,2.817.139l.155-.851a20.333,20.333,0,0,0-3-.186h0c-2.151,0-3.142.542-3.142,2.182,0,2.213,1.966,1.95,3.683,2.012,1.021.046,1.641.015,1.641,1.1,0,.975-.371,1.393-2.089,1.393a27.054,27.054,0,0,1-2.848-.17l-.124.882a18.509,18.509,0,0,0,2.956.186h0c2.229,0,3.219-.665,3.219-2.291,0-2.229-1.981-1.981-3.683-2.058Z"
            transform="translate(21.566 -36.765)" fill="#fff" />
          <path id="Path_164" data-name="Path 164"
            d="M50.475,37.573h-.093v6.67H49.33V36.83H51.2l3.374,6.639h.077V36.83h1.052v7.413H53.849Z"
            transform="translate(27.032 -36.737)" fill="#fff" />
          <path id="Path_165" data-name="Path 165"
            d="M24.4,40.539c-.155-.046-.155-.186,0-.248.743-.31.882-.8.882-1.594,0-1.981-1.563-1.857-3.219-1.857H19.2v7.413h3.219c1.563,0,3.2.062,3.2-2.136A1.473,1.473,0,0,0,24.4,40.555Zm-2.074,2.8H20.268V37.707h1.718c1.47,0,2.213-.077,2.213,1.13,0,1.13-.65,1.161-2.306,1.145v.882c1.981,0,2.631-.031,2.631,1.238,0,1.346-.851,1.223-2.2,1.223Z"
            transform="translate(10.531 -36.732)" fill="#fff" />
          <path id="Path_166" data-name="Path 166"
            d="M34.808,40.632c-.155-.046-.139-.2,0-.248a1.38,1.38,0,0,0,.929-1.439c0-2.074-1.331-2.1-3.25-2.1H29.67v7.413h1.052V37.738h2.352c1.223,0,1.563.34,1.563,1.238s-.248,1.176-1.362,1.192H32.27v.9h1.424c.8,0,.975.186,1.021,1.331v1.857h1.037v-2.2c-.031-.882-.387-1.254-.96-1.408Z"
            transform="translate(16.265 -36.732)" fill="#fff" />
        </g>
      </g>
      <g id="Group_126" data-name="Group 126" transform="translate(102.363 141.455)">
        <path id="Path_167" data-name="Path 167"
          d="M75.911,100.508h-2.77l-.8-.727a3.81,3.81,0,0,1-1.285.681,4.668,4.668,0,0,1-1.486.232,3.889,3.889,0,0,1-2.523-.743,2.4,2.4,0,0,1-.913-1.935,2.483,2.483,0,0,1,.139-.867,2.262,2.262,0,0,1,.387-.65,2.664,2.664,0,0,1,.526-.5c.2-.139.387-.248.557-.356q-.255-.186-.464-.371a2.582,2.582,0,0,1-.387-.433,1.855,1.855,0,0,1-.248-.5,1.927,1.927,0,0,1-.093-.619,1.771,1.771,0,0,1,.7-1.424,2.732,2.732,0,0,1,.975-.48,4.925,4.925,0,0,1,1.439-.186,5.178,5.178,0,0,1,1.254.139,2.851,2.851,0,0,1,.929.4,1.774,1.774,0,0,1,.542.588,1.555,1.555,0,0,1,.186.743,2.794,2.794,0,0,1-.077.588,1.566,1.566,0,0,1-.294.6,2.635,2.635,0,0,1-.6.557,3.973,3.973,0,0,1-1.021.464l1.78,1.563V95.416h2.167v.65a3.736,3.736,0,0,1-.232,1.316,2.871,2.871,0,0,1-.635,1.037l2.213,1.935v.124ZM71.3,98.79l-2.476-2.213a1.5,1.5,0,0,0-.263.418,1.362,1.362,0,0,0-.155.665,1.284,1.284,0,0,0,.155.666,1.884,1.884,0,0,0,.371.464,1.56,1.56,0,0,0,.526.279,1.753,1.753,0,0,0,.557.093,3.088,3.088,0,0,0,.7-.077,1.6,1.6,0,0,0,.6-.31Zm-.867-5a1.059,1.059,0,0,0-.093-.48.65.65,0,0,0-.232-.263.99.99,0,0,0-.294-.124c-.108,0-.186-.015-.248-.015a1.1,1.1,0,0,0-.217.015,1.03,1.03,0,0,0-.279.124.86.86,0,0,0-.217.248.835.835,0,0,0-.093.418,1.009,1.009,0,0,0,.279.665,4.391,4.391,0,0,0,.727.65,1.72,1.72,0,0,0,.5-.573A1.418,1.418,0,0,0,70.433,93.791Z"
          transform="translate(-66.13 -91.64)" fill="#fff" />
        <path id="Path_168" data-name="Path 168"
          d="M83.763,97.785a2.471,2.471,0,0,1-.248,1.13,2.377,2.377,0,0,1-.7.82,3.057,3.057,0,0,1-1.13.542,6.162,6.162,0,0,1-1.563.17H76.35V91.78h3.358a11.671,11.671,0,0,1,1.532.077,3.161,3.161,0,0,1,.96.31,1.835,1.835,0,0,1,.743.665,2.031,2.031,0,0,1-.077,2.074,2,2,0,0,1-.944.743V95.7a2.352,2.352,0,0,1,1.346.7,1.99,1.99,0,0,1,.5,1.393ZM80.9,94.225a.9.9,0,0,0-.108-.433.746.746,0,0,0-.387-.325,2.214,2.214,0,0,0-.6-.108H78.563v1.826h.356c.356,0,.65,0,.9-.015a1.231,1.231,0,0,0,.588-.124.754.754,0,0,0,.4-.34,1.229,1.229,0,0,0,.093-.5Zm.542,3.513a1.07,1.07,0,0,0-.155-.635,1,1,0,0,0-.542-.34,2.839,2.839,0,0,0-.712-.077H78.579v2.151H80.1a1.93,1.93,0,0,0,.743-.155.953.953,0,0,0,.48-.387,1.06,1.06,0,0,0,.124-.557Z"
          transform="translate(-60.533 -91.563)" fill="#fff" />
        <path id="Path_169" data-name="Path 169"
          d="M91.166,96.164a4.494,4.494,0,0,1-1.192,3.3,5.014,5.014,0,0,1-6.562,0,5.155,5.155,0,0,1,0-6.593,5.062,5.062,0,0,1,6.562,0A4.509,4.509,0,0,1,91.166,96.164Zm-2.972,2.2a2.647,2.647,0,0,0,.48-.929,4.38,4.38,0,0,0,.155-1.269,4.183,4.183,0,0,0-.186-1.331,2.618,2.618,0,0,0-.464-.882,1.925,1.925,0,0,0-.681-.511,2.035,2.035,0,0,0-2.306.5,2.337,2.337,0,0,0-.48.9,4.32,4.32,0,0,0-.186,1.331,4.6,4.6,0,0,0,.17,1.316,2.956,2.956,0,0,0,.464.882,1.687,1.687,0,0,0,.681.511,2.061,2.061,0,0,0,1.641,0,1.8,1.8,0,0,0,.681-.511Z"
          transform="translate(-57.318 -91.629)" fill="#fff" />
        <path id="Path_170" data-name="Path 170" d="M96.135,93.451H93.427v7H91.2v-7H88.49V91.78h7.645Z"
          transform="translate(-53.884 -91.563)" fill="#fff" />
        <path id="Path_171" data-name="Path 171"
          d="M102.4,100.437H100.09l-.6-1.749h-3.2l-.6,1.749H93.42l3.2-8.667h2.569l3.2,8.667Zm-3.451-3.343-1.068-3.111-1.068,3.111h2.136Z"
          transform="translate(-51.184 -91.569)" fill="#fff" />
        <path id="Path_172" data-name="Path 172"
          d="M108.148,100.437H106l-3.683-5.943v5.943H100.27V91.77h2.677l3.157,4.968V91.77h2.043v8.667Z"
          transform="translate(-47.433 -91.569)" fill="#fff" />
        <path id="Path_173" data-name="Path 173"
          d="M112.2,100.431H107.12V98.9h1.424V93.312H107.12V91.78H112.2v1.532h-1.424V98.9H112.2Z"
          transform="translate(-43.681 -91.563)" fill="#fff" />
        <path id="Path_174" data-name="Path 174"
          d="M119.288,97.779a2.443,2.443,0,0,1-1.083,2.074,4.909,4.909,0,0,1-2.941.8,8.328,8.328,0,0,1-1.873-.186,8.965,8.965,0,0,1-1.5-.48V97.918h.248a5.2,5.2,0,0,0,1.548.851,4.993,4.993,0,0,0,1.656.294,3.773,3.773,0,0,0,.542-.031,1.646,1.646,0,0,0,.542-.124,1.136,1.136,0,0,0,.418-.263.632.632,0,0,0,.17-.464.622.622,0,0,0-.248-.5,1.7,1.7,0,0,0-.712-.325c-.325-.077-.665-.155-1.037-.217a7.049,7.049,0,0,1-1.021-.263,3.243,3.243,0,0,1-1.579-.96,2.458,2.458,0,0,1,.6-3.5,4.74,4.74,0,0,1,2.786-.774,8.784,8.784,0,0,1,1.687.17,7.285,7.285,0,0,1,1.439.418v2H118.7a4.6,4.6,0,0,0-1.285-.7,4.477,4.477,0,0,0-1.548-.279,3.364,3.364,0,0,0-.557.031,2.922,2.922,0,0,0-.526.139.958.958,0,0,0-.387.263.59.59,0,0,0-.17.4.612.612,0,0,0,.263.526,3.061,3.061,0,0,0,.991.34c.325.062.619.124.913.186s.6.155.944.263a3.133,3.133,0,0,1,1.47.882,2.224,2.224,0,0,1,.48,1.455Z"
          transform="translate(-41.069 -91.635)" fill="#fff" />
        <path id="Path_175" data-name="Path 175"
          d="M126.413,100.437h-2.739l-2.585-3.467-.511.635v2.832H118.35V91.77h2.229V95.7l3.1-3.931h2.585l-3.389,4.008,3.56,4.658Z"
          transform="translate(-37.531 -91.569)" fill="#fff" />
        <path id="Path_176" data-name="Path 176"
          d="M135.514,100.437h-2.229V96.614h-3.3v3.823H127.76V91.77h2.229v3.173h3.3V91.77h2.229Z"
          transform="translate(-32.377 -91.569)" fill="#fff" />
        <path id="Path_177" data-name="Path 177"
          d="M142.841,100.437h-2.306l-.6-1.749h-3.2l-.6,1.749H133.88l3.2-8.667h2.569l3.2,8.667Zm-3.436-3.343-1.068-3.111-1.068,3.111Z"
          transform="translate(-29.026 -91.569)" fill="#fff" />
        <path id="Path_178" data-name="Path 178"
          d="M148.572,91.77l-3.157,8.667h-2.507L139.75,91.77H142.1l2.089,6.082,2.089-6.082h2.291Z"
          transform="translate(-25.811 -91.569)" fill="#fff" />
        <path id="Path_179" data-name="Path 179"
          d="M152.828,100.437H146.56V91.77h6.268v1.671h-4.039v1.5h3.745v1.671h-3.745V98.75h4.039v1.671Z"
          transform="translate(-22.081 -91.569)" fill="#fff" />
      </g>
    </g>
  </g>
</svg>