<svg xmlns="http://www.w3.org/2000/svg" width="1920.491" height="699.639" viewBox="0 0 1920.491 699.639">
  <g id="zoo_bund_rød" transform="translate(-192.755 0.01)">
    <g id="Group_30" data-name="Group 30" transform="translate(1638.894 245.946)">
      <path id="Path_7" data-name="Path 7"
        d="M857.1,150.538c0,9.959,4.836,21.952,14.795,21.952s21.261-11.993,21.261-21.952a18.018,18.018,0,1,0-36.036,0Z"
        transform="translate(-851.324 -124.168)" fill="#c42626" />
      <path id="Path_8" data-name="Path 8"
        d="M873.9,145.867s3.473-6.7,11.321-3.243-.23,14.795-6.006,15.946-9.479-5.085-9.479-5.085Z"
        transform="translate(-839.709 -115.793)" fill="#c42626" />
      <path id="Path_9" data-name="Path 9"
        d="M877.654,140.223l-23.564,1.612s9.019-14.564,18.939-13.624c9.94.921,21.722,15.946,21.722,15.255s1.612-6.927,1.612-6.927l1.612,8.309,5.315-4.855-3.243,6.467,4.394.691s-2.073,7.388-7.157,9.71c-5.085,2.3-19.649-16.637-19.649-16.637Z"
        transform="translate(-854.09 -128.167)" fill="#c42626" />
      <path id="Path_10" data-name="Path 10"
        d="M877.081,149.99s5.757,6.236,7.2,10.228-1.286,25.1-1.286,25.1-8.635.959-12.952.326a37.35,37.35,0,0,1-7.829-2.072s5.6-6.083,12.473-5.123l.326-3.358-8-.633s1.439-5.91.959-9.441-2.552-13.106-2.552-13.106Z"
        transform="translate(-846.629 -108.115)" fill="#c42626" />
      <path id="Path_11" data-name="Path 11"
        d="M872.743,162.4l-.959,4.317s-9.441.48-11.993,2.245,9.441,3.032,9.441,3.032l9.441-.959,1.439-8.961-7.349.326Z"
        transform="translate(-849.179 -97.015)" fill="#c42626" />
      <path id="Path_12" data-name="Path 12"
        d="M870.629,154.67c.633-.154,16.944.326,16.944.326s2.072-6.236,3.684-5.91.153,4.951.153,4.951,4.644-1.765,5.431-.48-2.878,2.552-2.878,2.552,3.358,1.919,2.552,3.512-3.838.326-3.838.326,2.245,3.684-.48,4.644-2.725-5.123-2.725-5.123l-15.351.48-3.512-5.277Z"
        transform="translate(-838.91 -108.957)" fill="#c42626" />
    </g>
    <path id="Path_13" data-name="Path 13"
      d="M914.758,139.093,881.6,132.78l1.4,75.143,14.219,1.19s.959-49.488,2.533-48.7,5.661,48.375,5.661,48.375h13.816l-4.471-69.674Z"
      transform="translate(810.082 122.018)" fill="#c42626" />
    <path id="Path_14" data-name="Path 14"
      d="M946.247,140.208l-37.572-6.428-2.245,73.493,14.219,1.19s4.605-47.838,6.179-47.051,3.818,47.051,3.818,47.051h13.816l1.785-68.254Z"
      transform="translate(832.898 122.937)" fill="#c42626" />
    <path id="Path_15" data-name="Path 15"
      d="M952.982,81.29,919.19,86.317s6.313,32.89-13.95,42.637a22.038,22.038,0,0,0,2.264,1.612c19.611-6.831,25.636-26.615,25.636-26.615-1.382,18.767-5.354,28.188-8.769,32.928a43.234,43.234,0,0,0,24.83-3.972s16.541-11.9,3.8-51.618Z"
      transform="translate(831.805 74.705)" fill="#c42626" />
    <path id="Path_16" data-name="Path 16"
      d="M883.159,256.09l65.549,16.1s52.117,2.993,56.7-1.382,2.149-12.07,2.149-12.07-44.959-4.3-51.349-5.1-25.195-16.79-36.324-26.615-24.945-25.771-24.945-25.771-6.371-27.881-11.839-33.5c-5.469-5.6-36.842-20.609-36.842-20.609s-33.657-16.5-37.149-18.172-15.927-30.318-19.266-33.2-17.136-20.609-17.9-24.389-38.051-10.9-38.051-10.9l-48.951,7.445L683.27,81.261l32.295,7.714L690.7,90.8s-5.143,11.667-1.516,12.127c3.646.461,48.816,3.607,64.589,15.428,10.324,7.733,24.408,27.536,32.928,40.3-6.2-.269-13.394-.614-16.08-.959-5.123-.633-16,3.2-16,3.2s-9.268,11.839-10.3,14.967,12.952-4.893,12.952-4.893-7.426,12.722-6.064,17.443,10.074-13.048,10.074-13.048-3.588,13.2-1.842,14.718c1.765,1.516,5.277-16.234,9.825-16.33,3.512-.058,17.711.441,25.943,2.379,3.588,24.869-2.245,57.739-2.245,57.739l-12.7,32.084,12.684.365s11.935-24.235,14.545-26.845,16.042-.748,16.042-.748l-1.113,32.813H850.75V246.918s21.587,3.972,32.41,9.076Z"
      transform="translate(627.841 55.583)" fill="#c42626" />
    <path id="Path_17" data-name="Path 17"
      d="M1003.769,161.965a3.493,3.493,0,0,1,3.607-.518c.173.058.326.134.5.211a8.962,8.962,0,0,1,3.819,3.473,18.78,18.78,0,0,1,2.437,8.078c-5.085,4.183-8.673,9.211-9.191,12.895-.921,6.505,9.594,16.963,3.7,20.647s-17.328,4.452-17.328,4.452L985.1,254.3c7.791-.23,16.023-.154,24.466.134,2.495.1,4.989.192,7.522.326,7.791.384,15.7.94,23.525,1.612,1.861-1.439,2.936-3.8,1.439-7.676-3.8-9.882-21.607-6.044-21.607-6.044l2.629-24.351c19.15,15.274,37.552,15.927,52.462,11.571l-3.665,17.462c-6.294,1.362-11.878,6.409-15.543,10.535,9.326.979,18.364,2.072,26.749,3.185,3.991.537,7.848,1.055,11.513,1.593,12.031,1.727,22.105,3.358,28.9,4.509.365-5.891-3.991-16.023-16.771-18.863-.461-.1-.921-.173-1.362-.23-.614-5.968-2.053-23.737,1.823-30.337,2.226-3.8,6.064-8.155,9.46-11.705a29.909,29.909,0,0,0,12.185,5.1c12.012,2.149,13.221-10.17,13.221-10.17l3.915-4.912c5.795-.979,12.7-7.81,12.7-7.81s-.25,5.622,4.529,4.605,4.951-12.665,4.951-12.665,6.121,4.394,6.774.384-12.473-22.048-12.473-22.048l5.718-.71-5.546-6.083s14.564-8.27,12.223-20.206c-1.669-8.52-6.927-13.279-10.9-14.449a4.2,4.2,0,0,0-3.838.326c-2.629,2.092-4.375,17.519-12.569,21.242a9.046,9.046,0,0,1-3.953.806,50.034,50.034,0,0,1-18.172-3.684c-7.541-3.185-14.18-8.808-16.118-18.114-2.4-11.532-8.424-18.057-15.121-18.344-3.128-.134-6.409,1.113-9.518,3.857-9.729,8.616-7.369,35.749,13.125,40.412.557.134-17.673,9.863-17.078,9.921s8.577-.192,8.577-.192-10,10.938-11.206,19.745a26.837,26.837,0,0,0,.749,10.285c-.441.154-.864.307-1.3.441a17.527,17.527,0,0,1-6.524.921,8.119,8.119,0,0,1-3.416-.979c-.921-.518-1.938-1.132-3.013-1.823-3.646-2.3-8.155-5.392-12.933-8.27a86.761,86.761,0,0,0-9.556-5.085c-1.286-.576-2.571-1.075-3.819-1.5-3.78-1.286-7.369-1.823-10.419-1.055a31.072,31.072,0,0,0-6.716,2.571,31.475,31.475,0,0,0-4.337-8.424,11.455,11.455,0,0,0-6.505-4.548,8.79,8.79,0,0,0-3.742.019,11.789,11.789,0,0,0-3.454,1.4,34.7,34.7,0,0,0-6.16,4.816c-2.418,2.245-4.874,4.836-7.349,7.273a66.008,66.008,0,0,1-6.16,5.488A20.4,20.4,0,0,1,977.9,177.7a8.527,8.527,0,0,1-8-.94,10.434,10.434,0,0,1-1.19-.921,17.6,17.6,0,0,1-4.375-6.044,29.737,29.737,0,0,1-2.322-12.434,45.264,45.264,0,0,1,2.245-13.586c1.593-4.8,3.818-8.4,5.968-9.326,6.563-2.84,9.345-17.462-2.859-18.1-11.667-.595-19.918,9.729-22.009,24.351-.1.672-.192,1.343-.25,2.034-.71,6.966.883,16.694,4.893,24.811a37.438,37.438,0,0,0,3.742,6.083c4.413,5.737,10.515,9.575,18.364,9.019a24.3,24.3,0,0,0,4.624-.787c.326-.1.633-.192.94-.269a43.958,43.958,0,0,0,9.921-4.164,36.626,36.626,0,0,0,5.027-3.512,48.453,48.453,0,0,0,7.138-7.56,18.854,18.854,0,0,1,4.049-4.471ZM1085.686,226a79.836,79.836,0,0,0,9.921-5.661c3.684,7.618-3.051,31.105-3.051,31.105l.959-.1a39.3,39.3,0,0,0-3.511,2.571,21.832,21.832,0,0,0-9.307-5.872C1081.253,243.863,1082.884,233.405,1085.686,226Zm-74.2-5.258c1.669,7.042,3.9,18.287,2.917,24.83-5.968-3.991-19.323-2.379-19.323-2.379l2.9-20.455a86.784,86.784,0,0,0,13.528-1.976Z"
      transform="translate(868.288 91.24)" fill="#c42626" />
    <g id="Group_41" data-name="Group 41" transform="translate(1439.177 111.074)">
      <path id="Path_18" data-name="Path 18"
        d="M828.259,109.956l-5.584-.806c-.154,2.648-3.78,20.206-3.78,20.206l2.571,1.42-2.514.345c.211,5.661-3.051,16.522-3.051,16.522l2.475,2.3-2.744.729a71.041,71.041,0,0,1-1.286,11.532h-.058c0,.154-.038.365-.058.633-.326,1.689-.556,2.782-.556,2.782l.115.038c-1.036,5.929-3.281,16.733-3.281,16.733l2.571,1.42-2.514.345c.211,5.661-3.051,16.522-3.051,16.522l2.475,2.3-2.744.729c0,6.313-1.957,14.967-1.957,14.967l5.622,1.689,1.938-15.581-.691-1.612,1.88-.441c-.1-2.648,2.993-18.018,2.993-18.018l-1.785-.441,2.111-.959,2.514-20.283h-.058l1.4-11.283-.691-1.612,1.88-.441c-.1-2.648,2.993-18.018,2.993-18.018l-1.784-.441,2.111-.959,2.514-20.283Z"
        transform="translate(-699.214 -10.769)" fill="#c42626" />
      <path id="Path_19" data-name="Path 19"
        d="M836.339,112.6l-5.584-.806c-.153,2.648-3.78,20.206-3.78,20.206l2.571,1.42-2.514.345c.211,5.661-3.051,16.522-3.051,16.522l2.475,2.3-2.744.729a71.055,71.055,0,0,1-1.286,11.532h-.058c0,.154-.038.365-.058.633-.326,1.689-.557,2.782-.557,2.782l.115.038c-1.036,5.929-3.281,16.733-3.281,16.733l2.571,1.42-2.514.345c.211,5.661-3.051,16.522-3.051,16.522l2.475,2.3-2.744.729c0,6.313-1.957,14.967-1.957,14.967l5.622,1.689,1.938-15.581-.691-1.612,1.88-.441c-.1-2.648,2.993-18.018,2.993-18.018l-1.785-.441,2.111-.959,2.514-20.283H827.9l1.4-11.283-.691-1.612,1.88-.441c-.1-2.648,2.993-18.018,2.993-18.018l-1.785-.441,2.111-.959,2.514-20.283Z"
        transform="translate(-691.79 -8.343)" fill="#c42626" />
      <path id="Path_20" data-name="Path 20"
        d="M829.033,110.661l-5.392-1.631c-.557,2.61-6.774,19.4-6.774,19.4l2.341,1.785-2.533-.038c-.633,5.641-5.488,15.869-5.488,15.869l2.111,2.648-2.821.307a71.25,71.25,0,0,1-2.994,11.206h-.058c-.038.134-.1.345-.154.614-.576,1.612-.979,2.667-.979,2.667l.115.058c-1.919,5.718-5.757,16.061-5.757,16.061l2.341,1.785-2.533-.038c-.633,5.641-5.488,15.869-5.488,15.869l2.111,2.648-2.821.307a84.884,84.884,0,0,1-4.183,14.488l5.3,2.514,4.26-15.121-.441-1.708,1.919-.154c.307-2.629,5.661-17.366,5.661-17.366l-1.689-.71,2.226-.633,5.546-19.668H812.8l3.07-10.957-.441-1.708,1.919-.154c.307-2.629,5.661-17.366,5.661-17.366l-1.689-.71,2.226-.633,5.546-19.669Z"
        transform="translate(-713.191 -10.879)" fill="#c42626" />
      <path id="Path_21" data-name="Path 21"
        d="M804.027,106.048l-5.641-.058c.192,2.648-1.094,20.532-1.094,20.532l2.744,1.075-2.437.672c.959,5.584-.844,16.771-.844,16.771L799.517,147l-2.629,1.094a70.315,70.315,0,0,1,.25,11.609h-.058c0,.154,0,.384.019.652-.1,1.708-.192,2.84-.192,2.84h.115c-.25,6.044-1.055,17.04-1.055,17.04l2.744,1.075-2.437.672c.959,5.584-.844,16.771-.844,16.771l2.763,1.957-2.629,1.094a86.009,86.009,0,0,1,.019,15.082l5.8.921-.134-15.716-.9-1.516,1.8-.691c-.441-2.61.595-18.268.595-18.268l-1.823-.192,1.957-1.228-.173-20.436h-.058l-.1-11.36-.9-1.516,1.8-.691c-.441-2.61.595-18.268.595-18.268l-1.823-.192,1.957-1.228-.173-20.436Z"
        transform="translate(-708.275 -13.673)" fill="#c42626" />
      <path id="Path_22" data-name="Path 22"
        d="M823.65,104.945l-5.853-.825c-.154,2.782-3.9,21.165-3.9,21.165l2.706,1.478-2.629.365c.249,5.929-3.128,17.308-3.128,17.308l2.61,2.4-2.878.768a75.757,75.757,0,0,1-1.3,12.089h-.058c0,.154-.038.384-.058.672-.326,1.765-.576,2.917-.576,2.917l.115.038c-1.075,6.217-3.377,17.539-3.377,17.539l2.706,1.478-2.629.365c.25,5.929-3.128,17.308-3.128,17.308l2.61,2.4-2.878.768c0,6.6-2.015,15.677-2.015,15.677l5.891,1.746,1.976-16.33-.729-1.689,1.957-.48c-.115-2.763,3.07-18.882,3.07-18.882l-1.861-.461,2.207-1.017,2.571-21.242h-.058l1.439-11.82-.729-1.689,1.957-.48c-.115-2.763,3.07-18.882,3.07-18.882l-1.861-.461,2.207-1.017,2.571-21.242Z"
        transform="translate(-704.085 -15.391)" fill="#c42626" />
      <g id="Group_31" data-name="Group 31" transform="translate(120.563 98.016)">
        <path id="Path_23" data-name="Path 23"
          d="M819.153,108.979,883.8,136.074l7.829,28.323s-16.33-12.377-13.624-26.653l-65.165-25.1,6.332-3.684Z"
          transform="translate(-812.84 -108.96)" fill="#c42626" />
        <path id="Path_24" data-name="Path 24"
          d="M862.593,123.881c.864,0-28.553,21.453-28.553,21.453S847.76,123.594,862.593,123.881Z"
          transform="translate(-793.36 -95.252)" fill="#c42626" />
        <path id="Path_25" data-name="Path 25" d="M848.92,123.88l25.022,16.56S856.768,138.79,848.92,123.88Z"
          transform="translate(-779.687 -95.25)" fill="#c42626" />
        <path id="Path_26" data-name="Path 26"
          d="M852.584,119.626,832.11,145.435l11.014-23.928-21.434,4.8s20.11-13.221,30.894-6.659Z"
          transform="translate(-804.708 -100.821)" fill="#c42626" />
        <path id="Path_27" data-name="Path 27" d="M835.18,118.07l3.665,20.148s4.893-13.528-3.665-20.148Z"
          transform="translate(-792.312 -100.589)" fill="#c42626" />
      </g>
      <g id="Group_32" data-name="Group 32" transform="translate(101.777 116.246)">
        <path id="Path_28" data-name="Path 28"
          d="M809.363,118.479l64.647,27.095,7.829,28.323s-16.33-12.377-13.624-26.653l-65.165-25.1,6.332-3.684Z"
          transform="translate(-803.05 -118.46)" fill="#c42626" />
        <path id="Path_29" data-name="Path 29"
          d="M852.8,133.381c.864,0-28.553,21.453-28.553,21.453S837.97,133.094,852.8,133.381Z"
          transform="translate(-783.57 -104.752)" fill="#c42626" />
        <path id="Path_30" data-name="Path 30" d="M839.13,133.38l25.022,16.56S846.978,148.29,839.13,133.38Z"
          transform="translate(-769.897 -104.75)" fill="#c42626" />
        <path id="Path_31" data-name="Path 31"
          d="M842.794,129.126,822.32,154.935l11.014-23.928L811.9,135.8s20.11-13.221,30.894-6.659Z"
          transform="translate(-794.918 -110.321)" fill="#c42626" />
        <path id="Path_32" data-name="Path 32" d="M825.39,127.57l3.665,20.148s4.893-13.528-3.665-20.148Z"
          transform="translate(-782.522 -110.089)" fill="#c42626" />
      </g>
      <g id="Group_33" data-name="Group 33" transform="translate(0 87.462)">
        <path id="Path_33" data-name="Path 33"
          d="M841.22,103.46l-69.6,8.27L756.29,136.81s19.112-7.407,20.436-21.875l69.559-6.2-5.066-5.277Z"
          transform="translate(-744.24 -103.46)" fill="#c42626" />
        <path id="Path_34" data-name="Path 34"
          d="M764.931,108.781c-.825-.23,21.549,28.476,21.549,28.476S779.265,112.58,764.931,108.781Z"
          transform="translate(-736.32 -98.572)" fill="#c42626" />
        <path id="Path_35" data-name="Path 35" d="M778.62,108.78l-28.61,9.038S766.992,120.965,778.62,108.78Z"
          transform="translate(-750.01 -98.572)" fill="#c42626" />
        <path id="Path_36" data-name="Path 36"
          d="M777.03,107.105l12.588,30.433L785.627,111.5l19.285,10.515s-15.7-18.249-27.881-14.91Z"
          transform="translate(-725.182 -100.485)" fill="#c42626" />
        <path id="Path_37" data-name="Path 37" d="M784.08,106.97l-9.057,18.364S774.044,110.98,784.08,106.97Z"
          transform="translate(-727.051 -100.235)" fill="#c42626" />
      </g>
      <g id="Group_34" data-name="Group 34" transform="translate(25.041 31.691)">
        <path id="Path_38" data-name="Path 38"
          d="M854.571,129.544,795.643,86.83s-13.01,1.458-32.583,22.182L792.4,97.384l-10.938,22.24,13.471-15.85-1.669,22.278,10.3-23.852,12.761,7.292-31.316,25.387,32.237-12.166-8.6,25.022L820.319,132l5.258,22.6,6.179-35.787s23.717,17.769,22.777,10.727Z"
          transform="translate(-763.06 -62.97)" fill="#c42626" />
        <path id="Path_39" data-name="Path 39"
          d="M849.558,135,804.579,74.577s-13.3-2.59-39.049,11.82L798.113,84l-17.692,18.575L798.631,91.1l-8.539,21.472,17.558-20.359,10.362,11.149-38.781,15.37,35.6-2.034-16.253,22.048,16.387-11.935-1.8,23.967,17.193-33.446s17.922,24.888,19.17,17.654Z"
          transform="translate(-760.79 -74.396)" fill="#c42626" />
      </g>
      <g id="Group_35" data-name="Group 35" transform="translate(51.426 12.684)">
        <path id="Path_40" data-name="Path 40"
          d="M834.99,150.8l-18.9-70.269s-11.014-7.061-39.279-3.281l30.126,9.441-22.508,10.4,20.436-3.819-15.313,16.253L812.578,97.5l5.335,13.7h-40.3l32.7,10.842-22.432,14.027,18.978-4.893-10.151,20.877,27.344-23.928s7.234,28.726,10.938,22.681Z"
          transform="translate(-776.81 -53.785)" fill="#c42626" />
        <path id="Path_41" data-name="Path 41"
          d="M829.242,155.138l3.089-75.258S823.639,69.5,794.549,64.49l26.845,18.652-25.444,3.3,21.376,2.552-20.167,11.321,26.461-4.759,1.017,15.178L784.82,98.262l28.937,20.82-26.5,6.908,20.244,1.055-16.483,17.481,34.405-15.159s-1.746,30.625,3.78,25.79Z"
          transform="translate(-769.45 -64.49)" fill="#c42626" />
      </g>
      <g id="Group_36" data-name="Group 36" transform="translate(70.691)">
        <path id="Path_42" data-name="Path 42"
          d="M830.485,152.987l2-72.745s-8.539-9.921-36.689-14.372l26.173,17.654-24.542,3.531,20.686,2.188-19.323,11.206,25.5-4.951,1.19,14.66L786.85,98.644l28.227,19.745-25.521,7.023,19.573.748-15.7,17.116,33.043-15.1s-1.286,29.608,4.01,24.849Z"
          transform="translate(-786.85 -50.538)" fill="#c42626" />
        <path id="Path_43" data-name="Path 43"
          d="M827.421,154.668l24.485-71.229s-5.373-12.434-31.8-25.559l20.378,25.54L815.16,79.314,834.9,87.872l-22.547,5.085,26.711,2.993-3.358,14.833L801.132,87.45l21.779,28.227-27.363-.959,19.112,6.793-20.8,12.031,37.3-4.682s-10.419,28.841-3.742,25.79Z"
          transform="translate(-780.409 -57.88)" fill="#c42626" />
      </g>
      <g id="Group_40" data-name="Group 40" transform="translate(119.954 13.301)">
        <g id="Group_37" data-name="Group 37" transform="translate(0 47.681)">
          <path id="Path_44" data-name="Path 44"
            d="M812.921,113.393,884.994,103.3s10.8,7.388,18.383,34.866L882.9,114.122l-.768,24.773-4.471-20.321-8.98,20.455,2.072-25.886-14.7.441,15.754,37.092L849.053,124.83l-4.126,26.135-2.917-19.381-15.255,17.5,11.321-34.521s-29.282,4.567-25.156-1.209Z"
            transform="translate(-812.522 -77.127)" fill="#c42626" />
          <path id="Path_45" data-name="Path 45"
            d="M815.524,121.936,883.587,89.66s12.952,3.953,28.937,28.745L884.873,101l6.908,24.715-10.707-18.671-2.533,22.988-5.968-26.212L858.2,108.81l27.037,31.757-30.491-18.479,4.01,27.095-8.884-18.229-9.633,22.01.5-37.591s-27.5,13.586-25.214,6.6Z"
            transform="translate(-809.888 -89.66)" fill="#c42626" />
        </g>
        <g id="Group_38" data-name="Group 38" transform="translate(1.185 21.584)">
          <path id="Path_46" data-name="Path 46"
            d="M813.14,141.007,862.781,87.8s13.048-1.075,36.228,15.524l-31.028-5.795,15.006,19.726L866.715,104.28l5.91,21.549L857.946,104.4l-11.13,9.594,35.6,18.9-33.964-5.757,13.24,22.911-14.468-13.221-.825,23.2-12.933-33.945s-19.88,21.99-20.3,14.891Z"
            transform="translate(-813.14 -65.289)" fill="#c42626" />
          <path id="Path_47" data-name="Path 47"
            d="M813.95,145.389l32.563-67.928s12.549-5.085,40.584,4.126l-32.448,3.876,20.935,14.852-20.071-7.771L868,111.981,846.859,95.364,838.838,108.3l41.006,7.656-35.326,4.836,20.167,18.536L846.3,130.748l6.371,23.18L829.4,124.4s-12.818,27.862-15.447,20.993Z"
            transform="translate(-812.396 -76.06)" fill="#c42626" />
        </g>
        <g id="Group_39" data-name="Group 39" transform="translate(0.072)">
          <path id="Path_48" data-name="Path 48"
            d="M812.749,142.829,845.1,77.645s12.2-4.759,39.145,4.509l-31.393,3.32L872.868,100.1l-19.285-7.771,11.82,18.958L845.2,94.953l-7.925,12.377,39.51,7.944-34.194,4.2,19.246,18.172-17.635-8.52,5.833,22.47-22.106-28.822s-12.76,26.749-15.2,20.071Z"
            transform="translate(-812.404 -54.142)" fill="#c42626" />
          <path id="Path_49" data-name="Path 49"
            d="M812.579,146.917l11.763-74.395s10.573-8.462,40.066-7.656l-29.973,13.01,24.293,8.251-21.453-1.708,17.539,15.063-25-9.882L825.82,104.28l41.486-4.394-32.467,14.737,24.619,11.993-20.072-2.955,12.722,20.378-30.76-21.626s-4.318,30.376-8.788,24.542Z"
            transform="translate(-812.56 -64.812)" fill="#c42626" />
        </g>
      </g>
    </g>
    <g id="Group_46" data-name="Group 46" transform="translate(453.488 -0.01)">
      <path id="Path_50" data-name="Path 50"
        d="M416.148,74.442l6.313-29.493L409.816,63.2l.71-43.539L401.392,46.35s4.222-19.668-8.424-33l-4.222,31.6s-13.336-21.069-23.871-33,11.935,28.783,11.935,28.783L364.876,26.682l-.71,14.046s-14.046-13.336-14.046-30.2V30.193S332.562,4.212,322.027-.01l23.046,36.056L315,28.082l12.645,15.447s-30.894-8.424-40.738-9.134,22.47,13.336,22.47,13.336l-37.226-.71L290.4,56.846s-33.715,0-42.829,4.222c-9.134,4.222,38.627,3.512,38.627,3.512s-25.272,11.245-40.028,21.76c-14.756,10.535,20.359-4.222,20.359-4.222L236.33,109.5l37.917-19.668-20.359,30.2L287.6,98.966S395.75,60.339,416.11,74.385Z"
        transform="translate(-236.33 0.01)" fill="#c42626" />
      <g id="Group_42" data-name="Group 42" transform="translate(30.069 93.142)">
        <path id="Path_51" data-name="Path 51"
          d="M324.489,74.121,260.3,49.06,258,84.1l63.285,18.018a6.366,6.366,0,0,0,3.2.9c5.085,0,9.23-6.467,9.23-14.449S329.593,74.121,324.489,74.121Z"
          transform="translate(-246.487 -48.043)" fill="#c42626" />
        <ellipse id="Ellipse_2" data-name="Ellipse 2" cx="11.513" cy="18.018" rx="11.513" ry="18.018" fill="#c42626" />
      </g>
      <g id="Group_43" data-name="Group 43" transform="translate(50.985 74.088)">
        <path id="Path_52" data-name="Path 52"
          d="M339.461,65.641,271.667,39.16,269.23,76.175,336.084,95.21a6.666,6.666,0,0,0,3.377.959c5.373,0,9.748-6.831,9.748-15.255s-4.356-15.255-9.748-15.255Z"
          transform="translate(-257.083 -38.085)" fill="#c42626" />
        <ellipse id="Ellipse_3" data-name="Ellipse 3" cx="12.146" cy="19.035" rx="12.146" ry="19.035" fill="#c42626" />
      </g>
      <g id="Group_44" data-name="Group 44" transform="translate(72.476 53.191)">
        <path id="Path_53" data-name="Path 53"
          d="M357.968,57.314,283.707,28.32,281.04,68.847l73.224,20.839a7.314,7.314,0,0,0,3.7,1.055c5.891,0,10.669-7.484,10.669-16.713s-4.778-16.713-10.669-16.713Z"
          transform="translate(-267.723 -27.149)" fill="#c42626" />
        <ellipse id="Ellipse_4" data-name="Ellipse 4" cx="13.317" cy="20.858" rx="13.317" ry="20.858" fill="#c42626" />
      </g>
      <path id="Path_54" data-name="Path 54" d="M305.343,75.33l45.573,18.556,5.066,76.218-53.652-5.8Z"
        transform="translate(-175.684 69.238)" fill="#c42626" />
      <path id="Path_55" data-name="Path 55" d="M271.98,102.914,334.132,74.86l5.315,91.8-56.453,12.549Z"
        transform="translate(-203.572 68.806)" fill="#c42626" />
      <path id="Path_56" data-name="Path 56" d="M295.32,49.995l37.648,256.247h5.373L311.458,43.72Z"
        transform="translate(-182.125 40.193)" fill="#c42626" />
      <path id="Path_57" data-name="Path 57" d="M261.24,72.139,315.89,283.6h8.059L275.574,59.59Z"
        transform="translate(-213.441 54.775)" fill="#c42626" />
      <path id="Path_58" data-name="Path 58" d="M322.72,49.32l16.426,232.952H347.2L335.845,52.39Z"
        transform="translate(-156.948 45.338)" fill="#c42626" />
      <g id="Group_45" data-name="Group 45" transform="translate(95.618 40.277)">
        <path id="Path_59" data-name="Path 59"
          d="M373.263,51.737,296.143,21.63l-2.763,42.1,76.045,21.645a7.646,7.646,0,0,0,3.838,1.094c6.121,0,11.091-7.771,11.091-17.366S379.384,51.737,373.263,51.737Z"
          transform="translate(-279.526 -20.383)" fill="#c42626" />
        <ellipse id="Ellipse_5" data-name="Ellipse 5" cx="13.835" cy="21.664" rx="13.835" ry="21.664" fill="#c42626" />
      </g>
    </g>
    <g id="Group_51" data-name="Group 51" transform="translate(737.54 84.363)">
      <path id="Path_60" data-name="Path 60"
        d="M515.861,117.472,525.148,98.9l-11.859,9.383,7.676-29.493L510.181,94.753s6.2-12.377-.441-24.523l-8.155,20.513s-5.853-17.577-11.264-28.265c-5.392-10.688,3.607,22.508,3.607,22.508L487.9,72.532l-2.8,9.4s-7.618-12.492-4.836-23.986l-3.243,13.394s-8-21.952-14.66-27.382l10.17,30.146L452.806,61.4,459.1,74.988s-20.225-13.221-26.979-16.08,13.528,14.526,13.528,14.526l-25.924-9.479,11.149,11.11s-23.583-8.155-30.664-7.5,26.442,11.744,26.442,11.744-19.534,1.535-31.6,5.143S410,86.5,410,86.5L384.36,97.861l29.781-4.222-19.227,15.639,27.056-6.2s82.032-.134,93.967,14.353Z"
        transform="translate(-384.36 -43.96)" fill="#c42626" />
      <g id="Group_47" data-name="Group 47" transform="translate(20.137 52.475)">
        <path id="Path_61" data-name="Path 61"
          d="M445.944,104.741,405.168,72.12,397.78,95.434l41.313,27.593a5.438,5.438,0,0,0,2.092,1.4c3.569,1.228,7.522-2.168,8.827-7.618S449.513,105.969,445.944,104.741Z"
          transform="translate(-392.166 -70.56)" fill="#c42626" />
        <path id="Path_62" data-name="Path 62"
          d="M411.5,86.683c-1.65,6.793-6.582,11.034-11.034,9.5s-6.716-8.29-5.085-15.063,6.582-11.034,11.034-9.5S413.133,79.909,411.5,86.683Z"
          transform="translate(-394.854 -71.307)" fill="#c42626" />
      </g>
      <g id="Group_48" data-name="Group 48" transform="translate(37.711 44.663)">
        <path id="Path_63" data-name="Path 63"
          d="M457.979,102.554,414.92,68.11l-7.81,24.638L450.745,121.9a5.468,5.468,0,0,0,2.207,1.478c3.761,1.3,7.944-2.3,9.326-8.04s-.537-11.456-4.3-12.761Z"
          transform="translate(-401.167 -66.432)" fill="#c42626" />
        <path id="Path_64" data-name="Path 64"
          d="M421.584,83.5c-1.727,7.177-6.946,11.667-11.648,10.036s-7.1-8.75-5.354-15.927c1.727-7.177,6.946-11.667,11.648-10.036S423.331,76.32,421.584,83.5Z"
          transform="translate(-404.013 -67.236)" fill="#c42626" />
      </g>
      <g id="Group_49" data-name="Group 49" transform="translate(55.855 35.882)">
        <path id="Path_65" data-name="Path 65"
          d="M472.574,101.345,425.408,63.62,416.85,90.6l47.8,31.93a5.965,5.965,0,0,0,2.418,1.612c4.126,1.42,8.693-2.514,10.228-8.808s-.576-12.549-4.7-13.969Z"
          transform="translate(-410.361 -61.777)" fill="#c42626" />
        <path id="Path_66" data-name="Path 66"
          d="M432.718,80.467c-1.9,7.848-7.618,12.78-12.76,11s-7.771-9.594-5.872-17.443,7.618-12.78,12.76-11S434.618,72.619,432.718,80.467Z"
          transform="translate(-413.468 -62.66)" fill="#c42626" />
      </g>
      <path id="Path_67" data-name="Path 67" d="M436.62,100.84l28.822,23.679L456.4,177.691,419.83,160.747Z"
        transform="translate(-351.767 8.306)" fill="#c42626" />
      <path id="Path_68" data-name="Path 68" d="M406.253,104.7l48.106-4.068-11.437,63.86-41.563-5.123Z"
        transform="translate(-368.739 8.113)" fill="#c42626" />
      <path id="Path_69" data-name="Path 69" d="M434.886,79.625,418.94,263.357l3.761,1.3,24.5-185.4Z"
        transform="translate(-352.585 -11.524)" fill="#c42626" />
      <path id="Path_70" data-name="Path 70" d="M400.25,86.666l3.339,157.329,5.641,1.957L412.339,81.6Z"
        transform="translate(-369.759 -9.373)" fill="#c42626" />
      <path id="Path_71" data-name="Path 71" d="M458.931,87.67,431.99,250.41l5.642,1.938,29.992-159.4Z"
        transform="translate(-340.594 -3.796)" fill="#c42626" />
      <g id="Group_50" data-name="Group 50" transform="translate(74.041 32.801)">
        <path id="Path_72" data-name="Path 72"
          d="M484.323,101.233,435.334,62.05,426.45,90.066l49.641,33.158a6.223,6.223,0,0,0,2.514,1.669c4.279,1.478,9.038-2.61,10.611-9.153s-.614-13.029-4.893-14.507Z"
          transform="translate(-419.725 -60.139)" fill="#c42626" />
        <path id="Path_73" data-name="Path 73"
          d="M442.93,79.544c-1.976,8.155-7.906,13.259-13.24,11.417s-8.078-9.959-6.1-18.114,7.906-13.259,13.24-11.417S444.906,71.389,442.93,79.544Z"
          transform="translate(-422.946 -61.054)" fill="#c42626" />
      </g>
    </g>
    <path id="Path_75" data-name="Path 75"
      d="M357.9,89.353s103.734,71.9,288.676,59.082c0,0-178.955,28.706-298.808-45.573s-6.754,1.689-6.754,1.689Z"
      transform="translate(268.944 64.589)" fill="#c42626" />
    <path id="Path_76" data-name="Path 76"
      d="M614.05,155.431c12.146-10.4,7.637-16.829-6.236-9.422,1.708-15.62-5.929-17.4-11.072-2.264-10.4-12.146-16.828-7.637-9.422,6.236-15.62-1.708-17.4,5.929-2.264,11.072-12.146,10.4-7.637,16.829,6.236,9.422-1.708,15.62,5.929,17.4,11.072,2.264,10.4,12.147,16.829,7.637,9.422-6.236C627.405,168.211,629.19,160.574,614.05,155.431ZM601.5,167.041a8.531,8.531,0,1,1,6.755-10A8.532,8.532,0,0,1,601.5,167.041Z"
      transform="translate(527.989 122.489)" fill="#c42626" />
    <path id="Path_77" data-name="Path 77"
      d="M421.07,163.111c12.146-10.4,7.637-16.829-6.236-9.422,1.708-15.62-5.929-17.4-11.072-2.264-10.4-12.146-16.829-7.637-9.422,6.236-15.62-1.708-17.4,5.929-2.264,11.072-12.146,10.4-7.637,16.829,6.236,9.422-1.708,15.62,5.929,17.4,11.072,2.264,10.4,12.147,16.829,7.637,9.422-6.236C434.425,175.891,436.21,168.254,421.07,163.111ZM408.52,174.721a8.531,8.531,0,1,1,6.754-10A8.532,8.532,0,0,1,408.52,174.721Z"
      transform="translate(350.665 129.546)" fill="#c42626" />
    <path id="Path_78" data-name="Path 78"
      d="M531,159.791c12.147-10.4,7.637-16.829-6.236-9.422,1.708-15.62-5.929-17.4-11.072-2.264-10.4-12.146-16.828-7.637-9.422,6.236-15.62-1.708-17.4,5.929-2.264,11.072-12.146,10.4-7.637,16.829,6.236,9.422-1.708,15.62,5.929,17.4,11.072,2.264,10.4,12.146,16.829,7.637,9.422-6.236C544.355,172.571,546.14,164.934,531,159.791ZM518.45,171.4a8.531,8.531,0,1,1,6.754-10A8.532,8.532,0,0,1,518.45,171.4Z"
      transform="translate(451.677 126.495)" fill="#c42626" />
    <g id="Group_52" data-name="Group 52" transform="translate(244.944 166.376)">
      <path id="Path_79" data-name="Path 79"
        d="M137.206,97.433l9.134.979s11.552-6.16,20.014-4.471c10.535,2.111,15.639,8.673,15.639,8.673a151.519,151.519,0,0,0,19.63,10.458c9.633,4.049,22.969-2.092,34.29,6.505,11.341,8.6,33.446,36.938,43.463,37.111s27.459-21.53,11.935-39.7-33.983-.326-28.764,8.462c0,0,.729,4.8-.9,2.475s-5.584-18.057,14.161-22.259,33.638,22.3,29.685,36.9c-3.972,14.6-20.973,25.368-27.21,22.508s-19.323-12.2-23.334-13.758c-4.01-1.535-7.771,3.9-9,6.447s-.441,6.294-2.4,7.33-8.731-1.88-8.731-1.88,6.236-9.172-1.957-14.276-26.864-5.45-31.335-6.179c-4.49-.729-7.58,13.3-10.669,13.931-3.109.633-16.541-2.092-16.541-2.092l-.729-4.8s9.441,3.934,12.185-.748c2.744-4.663-4.068-8.4-11.072-12.281-7.023-3.857-22.3.249-30.2-4.413s-15.447-23.871-16.56-26.154,1.266-4.452,2.552-4.778l6.889,4.068s-9.134-5.373-.192-8.04Z"
        transform="translate(-127.65 -80.316)" fill="#c42626" />
      <circle id="Ellipse_6" data-name="Ellipse 6" cx="13.183" cy="13.183" r="13.183" transform="translate(9.537 6.332)"
        fill="#c42626" />
      <circle id="Ellipse_7" data-name="Ellipse 7" cx="8.002" cy="8.002" r="8.002" transform="translate(13.97 8.635)"
        fill="#c42626" />
      <circle id="Ellipse_8" data-name="Ellipse 8" cx="3.416" cy="3.416" r="3.416" transform="translate(20.935 15.428)"
        fill="#c42626" />
      <path id="Path_80" data-name="Path 80"
        d="M159.1,87.175s-6.582,6.14-10.381,18l-4.01-.537s3.646-10.822,13.01-17.826Z"
        transform="translate(-111.973 -86.599)" fill="#c42626" />
      <path id="Path_81" data-name="Path 81"
        d="M162.132,87.065s-6.582,6.14-10.381,18l-4.01-.537S151.386,93.7,160.75,86.7Z"
        transform="translate(-109.189 -86.7)" fill="#c42626" />
      <path id="Path_82" data-name="Path 82"
        d="M163.822,89.835s-6.582,6.14-10.381,18l-4.01-.537s3.646-10.822,13.01-17.826Z"
        transform="translate(-107.636 -84.155)" fill="#c42626" />
      <path id="Path_83" data-name="Path 83"
        d="M165.592,92.065s-6.582,6.14-10.381,18l-4.01-.537S154.846,98.7,164.21,91.7Z"
        transform="translate(-106.01 -82.106)" fill="#c42626" />
      <path id="Path_84" data-name="Path 84"
        d="M166.332,94.635s-6.582,6.14-10.381,18l-4.01-.537s3.646-10.822,13.01-17.826Z"
        transform="translate(-105.33 -79.744)" fill="#c42626" />
      <path id="Path_85" data-name="Path 85"
        d="M167.792,97.395s-6.582,6.14-10.381,18l-4.01-.537s3.646-10.822,13.01-17.826Z"
        transform="translate(-103.988 -77.208)" fill="#c42626" />
      <path id="Path_86" data-name="Path 86"
        d="M166.188,128.341s-11.571-8.174-12.2-7.867-1.554,2.264-1.554,2.264l5.853,4.356,4.586,2.245-8.347,3.723a6.179,6.179,0,0,0,2.111,2.61c1.343.806,10.419-1.823,12.146-3.991S166.188,128.341,166.188,128.341Z"
        transform="translate(-104.88 -55.674)" fill="#c42626" />
      <path id="Path_87" data-name="Path 87"
        d="M199.616,133.727s2.226,4.72-1.209,4.759c-3.435.019-18.057.5-18.709-.326s.154-2.187.154-2.187l7.925-.326L177.7,133.8s-1.4-2.648-1-3.32,10.842,2.072,10.842,2.072l-5.526-2.571V126.55s10.765,2.936,17.577,7.2Z"
        transform="translate(-82.641 -50.083)" fill="#c42626" />
    </g>
    <g id="Group_53" data-name="Group 53" transform="translate(437.945 199.4)">
      <path id="Path_88" data-name="Path 88"
        d="M234.22,186.3l18.344-56.741,6.62,5.085s-8.424,57.72-9.038,69.809c-.614,12.07-15.927-18.153-15.927-18.153Z"
        transform="translate(-222.726 -80.341)" fill="#c42626" />
      <path id="Path_89" data-name="Path 89"
        d="M252.148,146.272s-1.343-24.005-21.664-30.222C230.484,116.05,226.723,129.482,252.148,146.272Z"
        transform="translate(-226.339 -92.755)" fill="#c42626" />
      <path id="Path_90" data-name="Path 90"
        d="M246.7,147.944s11.206-21.28-3.032-37.054C243.673,110.89,233.541,120.484,246.7,147.944Z"
        transform="translate(-217.461 -97.496)" fill="#c42626" />
      <path id="Path_91" data-name="Path 91"
        d="M245.82,145.7s20.551-12.492,16.464-33.331C262.284,112.37,248.66,115.383,245.82,145.7Z"
        transform="translate(-212.067 -96.136)" fill="#c42626" />
      <path id="Path_92" data-name="Path 92" d="M248.07,140.339s24.044-.134,31.278-20.11c0,0-13.221-4.433-31.278,20.11Z"
        transform="translate(-209.999 -89.201)" fill="#c42626" />
      <path id="Path_93" data-name="Path 93" d="M255.42,124.248s13.778-.077,17.922-11.513c0,0-7.58-2.533-17.922,11.513Z"
        transform="translate(-203.246 -95.964)" fill="#c42626" />
      <path id="Path_94" data-name="Path 94"
        d="M248.64,118.018s13.778-.077,17.922-11.513C266.562,106.505,258.983,103.972,248.64,118.018Z"
        transform="translate(-209.476 -101.689)" fill="#c42626" />
      <path id="Path_95" data-name="Path 95"
        d="M247.15,121.066s-6.946-11.9-18.92-9.786C228.23,111.28,229.8,119.109,247.15,121.066Z"
        transform="translate(-228.23 -97.368)" fill="#c42626" />
      <path id="Path_96" data-name="Path 96"
        d="M243.839,122.561s.863-13.758-10.285-18.651C233.554,103.91,230.5,111.3,243.839,122.561Z"
        transform="translate(-223.614 -103.91)" fill="#c42626" />
      <path id="Path_97" data-name="Path 97"
        d="M249.58,135.085s20.686,12.262,37.169-1.151c0,0-9.057-10.611-37.169,1.151Z"
        transform="translate(-208.612 -80.358)" fill="#c42626" />
      <path id="Path_98" data-name="Path 98"
        d="M249.92,134.8s11.437,21.165,32.448,18.133c0,0-2.322-13.758-32.448-18.133Z"
        transform="translate(-208.3 -75.526)" fill="#c42626" />
      <path id="Path_99" data-name="Path 99"
        d="M263.63,136.86s7.253,13.413,20.57,11.494C284.2,148.354,282.742,139.642,263.63,136.86Z"
        transform="translate(-195.702 -73.633)" fill="#c42626" />
      <path id="Path_100" data-name="Path 100"
        d="M264.15,119.011s11.9,9.537,23.429,2.552C287.579,121.564,282.821,114.1,264.15,119.011Z"
        transform="translate(-195.224 -91.572)" fill="#c42626" />
      <path id="Path_101" data-name="Path 101"
        d="M263.75,124.6s7.253,13.413,20.57,11.494C284.32,136.094,282.862,127.382,263.75,124.6Z"
        transform="translate(-195.591 -84.898)" fill="#c42626" />
    </g>
    <path id="Path_102" data-name="Path 102"
      d="M300.466,185.093,278.9,173.964,242.67,152.606l-38.186,1.075L144.5,136.047l8.693-10.727,59.313,14.948s44.192-5.45,62.958-4.471c18.767.959,65.7,34.693,65.7,34.693l21.549,57.221-43.77,11.494Z"
      transform="translate(132.778 115.163)" fill="#c42626" />
    <g id="Group_55" data-name="Group 55" transform="translate(1013.167 205.192)">
      <g id="Group_54" data-name="Group 54">
        <path id="Path_103" data-name="Path 103"
          d="M595.986,137s11.494,31.6,3.838,50.275-31.124,27.286-50.275,21.549S528,194.931,528,194.931l7.177.48s5.737,2.878,5.737-10.055-1.439-42.139,4.318-58.89c5.737-16.752,31.124-22.988,41.179-17.711,10.055,5.258,11.974,17.232,11.974,17.232l9.575,10.055L595.986,137Z"
          transform="translate(-528 -106.928)" fill="#c42626" />
        <path id="Path_104" data-name="Path 104" d="M565.55,157.78l19.17,2.878-3.838,5.737-35.921-2.859Z"
          transform="translate(-512.416 -60.202)" fill="#c42626" />
        <path id="Path_105" data-name="Path 105"
          d="M560.675,139.3S550.62,166.1,530.99,164.664c0,0,9.1-11.494,9.575-25.847S560.675,139.3,560.675,139.3Z"
          transform="translate(-525.253 -83.377)" fill="#c42626" />
        <path id="Path_106" data-name="Path 106"
          d="M565.079,140.56s9.575,14.372,10.055,24.427-12.453-3.358-12.453-3.358Z"
          transform="translate(-496.133 -76.025)" fill="#c42626" />
      </g>
      <circle id="Ellipse_9" data-name="Ellipse 9" cx="8.616" cy="8.616" r="8.616" transform="translate(40.699 7.89)"
        fill="#c42626" />
      <circle id="Ellipse_10" data-name="Ellipse 10" cx="3.684" cy="3.684" r="3.684"
        transform="translate(42.215 13.589)" fill="#c42626" />
      <circle id="Ellipse_11" data-name="Ellipse 11" cx="8.616" cy="8.616" r="8.616" transform="translate(56.07 5.414)"
        fill="#c42626" />
      <circle id="Ellipse_12" data-name="Ellipse 12" cx="3.684" cy="3.684" r="3.684"
        transform="translate(57.586 11.114)" fill="#c42626" />
    </g>
    <path id="Path_107" data-name="Path 107"
      d="M912.45,159.922c-.46-1.362,8.021-47.588,8.021-47.588l-38.071-1.8,1.957,45.784,28.092,3.627Z"
      transform="translate(810.817 101.573)" fill="#c42626" />
    <path id="Path_108" data-name="Path 108"
      d="M891.266,85.74s-11.782,32.64-4.087,38.071,16.771,3.166,16.771,3.166l-4.529,13.6,6.352.9,16.31-61.193-30.817,5.43Z"
      transform="translate(812.812 73.786)" fill="#c42626" />
    <path id="Path_109" data-name="Path 109"
      d="M924.308,83.408s-19.937-11.341-36.267-4.087l6.351,2.725L882.15,88.4s13.6,2.725,25.387,2.725c0,0,10.208.806,16.771-7.714Z"
      transform="translate(810.588 70.668)" fill="#c42626" />
    <path id="Path_110" data-name="Path 110"
      d="M903.152,89.187l6.294-.787s2.36,7.081.384,12.972-10.419,2.36-10.419,2.36l3.742-14.545Z"
      transform="translate(826.448 81.238)" fill="#c42626" />
    <path id="Path_111" data-name="Path 111" d="M905.685,111.47l19.227,17.6-4.337,9.863L898.47,126.706Z"
      transform="translate(825.584 102.436)" fill="#c42626" />
    <path id="Path_112" data-name="Path 112"
      d="M938.45,160.922c-.461-1.362,8.021-47.588,8.021-47.588l-38.071-1.8,1.957,45.784,28.092,3.627Z"
      transform="translate(834.708 102.492)" fill="#c42626" />
    <path id="Path_113" data-name="Path 113"
      d="M917.266,86.74s-11.782,32.64-4.087,38.071,16.771,3.166,16.771,3.166l-4.529,13.6,6.351.9,16.31-61.193-30.817,5.43Z"
      transform="translate(836.703 74.705)" fill="#c42626" />
    <path id="Path_114" data-name="Path 114"
      d="M950.969,85.649s-8.27-12.089-25.387-8.4-18.153,23.948-18.153,23.948L950.969,85.63Z"
      transform="translate(833.817 70.346)" fill="#c42626" />
    <path id="Path_115" data-name="Path 115"
      d="M933.357,112.47s12.991,22.566,12.991,32.314-20.8,23.948-20.8,23.948l-2.9-10.784s13.95-4.2,13.95-19.477-11.839-13.95-11.839-13.95Z"
      transform="translate(847.802 103.355)" fill="#c42626" />
    <path id="Path_116" data-name="Path 116"
      d="M911.216,111.53s-6.831,10.17-5.8,18.325,12.626,11.321,12.626,11.321L911.2,111.53Z"
      transform="translate(831.873 102.492)" fill="#c42626" />
    <path id="Path_117" data-name="Path 117"
      d="M955.9,146.005c-2.533,0-6.236,9.71-6.236,9.71s.921-11.321-1.842-11.782c-2.782-.461-6.006,5.085-6.006,5.085l5.239,6.39a11.887,11.887,0,0,0-3.435-1.151,12.015,12.015,0,0,0-13.874,13.873l.115.633a48.314,48.314,0,0,0-3.051,8.654,33.806,33.806,0,0,1,4.836-2.149c1.074,2.667,2.61,4.97,4.759,5.929-1,4.548-7.234,11.935-7.234,11.935l4.855.077.1,3.128s-5.43-.806-5.43.48,1.439,3.684,5.6,4.8c3.224.863,3.089-5.469,2.859-8.347l2.073.038c0,2.686.077,7.925,1.151,8.635,1.439.959,10.228-.48,8.309-3.032s-6.562,0-6.562,0l.748-5.546,7.081.115-5.085-11.859c5.162,3.07,15.2.921,15.2.921-3.243,0-4.624-11.782-5.085-17.788a8.842,8.842,0,0,0-4.049-6.582c3.742.23,12.127.326,13.048-4.509,1.151-6.006-5.546-7.618-8.078-7.618Z"
      transform="translate(851.625 132.241)" fill="#c42626" />
    <path id="Path_118" data-name="Path 118" d="M491.579,135.47l10.5,56.473-24.945-3.934V140.728Z"
      transform="translate(438.424 124.49)" fill="#c42626" />
    <g id="Group_56" data-name="Group 56" transform="translate(811.225 120.649)">
      <path id="Path_119" data-name="Path 119" d="M422.76,217.523,565.927,101.93l32.832,13.144L454.287,224.086Z"
        transform="translate(-422.76 -26.979)" fill="#c42626" />
      <path id="Path_120" data-name="Path 120"
        d="M505.078,121.854s-4.625-6.179-9.249-5.776c-4.625.384-7.522,11-7.522,11s-3.281-13.106-10.419-13.49-3.089,14.66.192,19.477,7.33,7.714,9.249,7.33,2.322-10.611,2.322-10.611,4.625-8.1,6.946-6.563S507.784,136.9,507.784,136.9l27.382-3.089s8.1-16.579,12.147-14.085,7.522,17.347,7.522,17.347S566.6,125.692,566.6,116.443s-13.682,4.049-13.682,4.049-.959-11.571-7.522-12.146-14.852,7.906-14.852,7.906-2.13-29.685-14.085-32.966-13.49,12.53-13.49,12.53l2.13,26.039Z"
        transform="translate(-375.746 -44.523)" fill="#c42626" />
      <circle id="Ellipse_13" data-name="Ellipse 13" cx="21.99" cy="21.99" r="21.99" transform="translate(117.55)"
        fill="#c42626" />
      <path id="Path_121" data-name="Path 121"
        d="M502,83.594s16.579-.959,18.133,5.584-15.62,12.53-15.62,12.53l-2.9-5.584s11.187-1.343,10.611-4.049-15.236-3.089-15.236-3.089L502,83.594Z"
        transform="translate(-354.552 -43.873)" fill="#c42626" />
    </g>
    <g id="Group_57" data-name="Group 57" transform="translate(1164.567 155.419)">
      <ellipse id="Ellipse_14" data-name="Ellipse 14" cx="8.251" cy="8.942" rx="8.251" ry="8.942"
        transform="translate(121.58 20.781)" fill="#c42626" />
      <ellipse id="Ellipse_15" data-name="Ellipse 15" cx="12.645" cy="13.682" rx="12.645" ry="13.682"
        transform="translate(30.164 34.309)" fill="#c42626" />
      <path id="Path_122" data-name="Path 122"
        d="M772.806,148.5c-7.867,0-14.257,6.908-14.257,15.428v.345c-4.01,2.571-9.038,5.68-14.852,9.038a13.413,13.413,0,0,0-6.755-8.251,169.948,169.948,0,0,0,17.1-17.347c.326.019.652.038.979.038,6.985,0,12.646-6.121,12.646-13.682S762,120.385,755.018,120.385s-12.645,6.121-12.645,13.682a14.419,14.419,0,0,0,2,7.388c-2.072,3.013-4.567,6.467-7.5,10.228a11.194,11.194,0,0,0,.077-1.132c0-4.932-3.7-8.942-8.251-8.942s-8.251,3.991-8.251,8.942,3.7,8.942,8.251,8.942a7.447,7.447,0,0,0,1.976-.269c-2.111,2.437-4.375,4.951-6.793,7.484a13.014,13.014,0,0,0-1.823,1.88,197.784,197.784,0,0,1-17.02,15.485,37.468,37.468,0,0,0-.461-4.912,24.056,24.056,0,0,0-2.149-6.793A184.908,184.908,0,0,0,720.248,141.7a13.767,13.767,0,0,0,7.522-12.511c0-7.56-5.661-13.682-12.646-13.682a12.523,12.523,0,0,0-1.5.1c.441-2.437.864-4.893,1.228-7.407,6.083-1,10.727-6.678,10.727-13.528,0-7.56-5.661-13.682-12.645-13.682s-12.646,6.121-12.646,13.682a13.866,13.866,0,0,0,6.39,11.878c-.787,4.759-1.861,10.65-3.2,17.289a14.849,14.849,0,0,0-.979,4.663c-.748,3.492-1.573,7.177-2.495,10.957a12.08,12.08,0,0,0-7.215-3.377c.038-2.053.058-4.145,0-6.217a13.642,13.642,0,0,0,8.539-12.933c0-7.56-5.661-13.682-12.645-13.682s-12.646,6.121-12.646,13.682a13.96,13.96,0,0,0,5.584,11.341c.288,3.416.576,7.484.825,12.031a14.067,14.067,0,0,0-3.243,6.85,231.742,231.742,0,0,0-7.58-38.665,14.09,14.09,0,0,0,4.548-10.5c0-7.56-5.661-13.682-12.646-13.682S650.88,90.431,650.88,97.991s5.661,13.682,12.645,13.682a7.706,7.706,0,0,0,.94-.038,256.444,256.444,0,0,1,8.577,32.1,12.01,12.01,0,0,0-7.5-2.667c-6.985,0-12.645,6.121-12.645,13.682s5.565,13.586,12.473,13.682c1.439,1.957,2.955,4.106,4.49,6.409a7.69,7.69,0,0,0-3.723-.979c-4.567,0-8.251,3.991-8.251,8.942s3.7,8.942,8.251,8.942,8.251-3.991,8.251-8.942a5.656,5.656,0,0,0-.038-.806c1.573,2.686,3.109,5.507,4.529,8.424a40.205,40.205,0,0,1-7.445,6.678c-4.241.345-10.707.729-14.891.23-2.9-.345-7.369-4.337-11-8.059a18,18,0,0,0,1.573-9.134,32.473,32.473,0,0,0-2.418-9.172,9.977,9.977,0,0,0-2.917-3.934A15.771,15.771,0,0,0,635.318,164a27.1,27.1,0,0,0,4.778-7.119,5.77,5.77,0,1,0-3.819-1.343,25.623,25.623,0,0,1-4.049,8,17.666,17.666,0,0,0-2.015-.058c1.017-2.936,1.689-7.464.115-13.586a5.768,5.768,0,1,0-3.8,1.42,26.854,26.854,0,0,1,2,12.262c-.307.019-.595.058-.883.1-.576-2.84-2.571-8.04-9.287-12.895a5.765,5.765,0,1,0-10.036,2.878,5.778,5.778,0,0,0,8.021.652,27.191,27.191,0,0,1,10.323,9.518c-4.74.825-9.211,3.2-11.705,7.215,0,.019-.019.038-.038.077a16.522,16.522,0,0,0-1.785,4.068H613.1a6.355,6.355,0,0,0,.269,12.242,36.3,36.3,0,0,0,1.976,5.661,23.014,23.014,0,0,0-4.663,8.769c-2.072,7.464,2.322,22.931,5.546,15.1,1.919-4.682,6.2-10.4,9.307-14.257a40.244,40.244,0,0,0,9.652-2.782c2.59,9.4,6.889,18.46,12.031,23.794a15.425,15.425,0,0,0,9.115,4.126l-.748,1.669a52.5,52.5,0,0,0-15.716,1.075l-.288,5.047,5.335-.288.883,3.262,15.735-4.3.883-3.857c-1.132-.23-2.245-.422-3.339-.556a7.217,7.217,0,0,1,1.785-1.842A29.614,29.614,0,0,0,667.44,227a8,8,0,0,1,3.761,2.092c-1.075.307-2.187.652-3.3,1.094l.441,3.109,18.556,3.7v-2.974H691.5l-.883-5.047a33.4,33.4,0,0,0-13.586-1.036l-2.725-4.03a14.2,14.2,0,0,0,6.217-7.925c.134-.5.25-1,.345-1.478a36.854,36.854,0,0,0,15.006-8.1c11.206,2.936,24.869,5.315,38.512,4.8a12.772,12.772,0,0,0,11.974,9.307c6.985,0,12.646-6.121,12.646-13.682s-5.661-13.682-12.646-13.682A12.591,12.591,0,0,0,735,200.824a204.964,204.964,0,0,1-35.5,1.574,27.679,27.679,0,0,0,2.475-3.972,261.32,261.32,0,0,0,28.553-7.368,11.18,11.18,0,0,0,1.132.058,12.082,12.082,0,0,0,8.232-3.3,186.467,186.467,0,0,0,24.811-11.245,13.424,13.424,0,0,0,8.1,2.744c7.867,0,14.257-6.908,14.257-15.428s-6.39-15.428-14.257-15.428Zm-53.537,31.623c-3.876,2.418-8.328,5.047-13.163,7.58,4.2-2.591,8.577-5.45,13.029-8.6.038.345.077.672.134,1ZM690.2,163.329a12.458,12.458,0,0,0,1.478.1,12.731,12.731,0,0,0,1.919-.154c-.211.672-.4,1.324-.614,2a6.408,6.408,0,0,0-3.627,2.878c.288-1.573.576-3.185.844-4.8Zm8,3.473c1.19-2.821,2.379-5.776,3.55-8.827a14.05,14.05,0,0,0,2.475-6.831q1.813-5.239,3.492-10.88a12.091,12.091,0,0,0,4.529,2.245,219.727,219.727,0,0,1-12.665,25.617A12.675,12.675,0,0,0,698.2,166.8Zm-15.274-7.177a257.507,257.507,0,0,1-1.554,27.536c-.134.192-.269.4-.4.595a308.125,308.125,0,0,0-.959-32.678,13.593,13.593,0,0,0,2.917,4.548Zm-4.759,19.995a113.023,113.023,0,0,0-5.776-13.336,13.285,13.285,0,0,0,3.8-4.126c.768,5.488,1.439,11.3,1.977,17.443Z"
        transform="translate(-606.9 -80.99)" fill="#c42626" />
    </g>
  </g>
  <rect id="Rectangle_34" data-name="Rectangle 34" width="1920" height="222.85" transform="translate(0 476.789)"
    fill="#c4262d" />
  <path id="Path_251" data-name="Path 251" d="M0,0S473-69.2,953-69.2,1920,0,1920,0V173H0Z"
    transform="translate(0.491 368.1)" fill="#c4262d" />
</svg>